<?xml version="1.0" standalone="no"?>
<!DOCTYPE svg PUBLIC "-//W3C//DTD SVG 20010904//EN"
 "http://www.w3.org/TR/2001/REC-SVG-20010904/DTD/svg10.dtd">
<svg version="1.0" xmlns="http://www.w3.org/2000/svg"
 width="6129.000000pt" height="4291.000000pt" viewBox="0 0 6129.000000 4291.000000"
 preserveAspectRatio="xMidYMid meet">
<metadata>
Created by potrace 1.15, written by Peter Selinger 2001-2017
</metadata>
<g transform="translate(0.000000,4291.000000) scale(0.100000,-0.100000)"
fill="#000000" stroke="none">
<path d="M994 39721 c-170 -27 -268 -107 -320 -261 -17 -50 -19 -90 -19 -435
0 -428 -1 -421 77 -524 23 -31 124 -140 225 -243 192 -197 263 -283 284 -346
19 -53 19 -612 1 -663 -27 -77 -113 -117 -210 -99 -50 9 -76 30 -106 85 -20
38 -21 55 -24 373 l-3 332 -125 0 -124 0 0 -342 c0 -371 6 -420 55 -519 71
-139 201 -197 418 -187 240 12 356 120 387 361 12 93 12 505 0 627 -19 197
-49 247 -309 514 -192 197 -235 246 -267 306 -17 32 -19 60 -19 340 0 287 1
307 20 339 32 54 67 75 138 79 86 6 129 -14 159 -70 22 -42 23 -52 26 -335 l3
-293 125 0 124 0 0 258 c0 141 -5 296 -10 344 -23 198 -101 305 -251 344 -65
17 -193 24 -255 15z"/>
<path d="M2991 39720 c-153 -23 -261 -104 -310 -235 -40 -108 -42 -168 -39
-1235 l3 -1025 22 -65 c43 -125 108 -197 223 -242 47 -19 75 -22 190 -23 119
0 142 3 194 24 70 28 132 87 165 155 45 96 51 157 51 524 l0 342 -114 0 -114
0 -4 -332 c-3 -315 -4 -335 -25 -380 -27 -60 -66 -80 -149 -80 -79 0 -124 25
-153 86 -21 43 -21 46 -19 1084 3 1038 3 1041 24 1069 38 52 81 73 146 73 84
0 125 -22 152 -79 19 -42 21 -68 24 -333 l4 -288 114 0 114 0 0 294 c0 161 -4
315 -9 342 -47 248 -221 363 -490 324z"/>
<path d="M4023 39720 c-173 -31 -268 -115 -320 -285 -17 -57 -18 -120 -18
-1130 l0 -1070 22 -70 c57 -180 171 -262 378 -273 118 -5 191 8 274 49 100 50
157 134 186 275 14 70 15 199 13 1129 l-3 1050 -25 69 c-58 165 -176 246 -376
260 -43 2 -102 1 -131 -4z m204 -286 c15 -11 37 -38 48 -60 20 -38 20 -59 20
-1069 0 -1010 0 -1031 -20 -1069 -36 -70 -108 -102 -196 -86 -53 10 -87 36
-113 86 -21 39 -21 47 -21 1069 l0 1030 25 45 c35 62 76 82 162 78 48 -3 75
-9 95 -24z"/>
<path d="M9663 39720 c-173 -31 -268 -115 -320 -285 -17 -57 -18 -120 -18
-1130 l0 -1070 22 -70 c57 -180 171 -262 378 -273 118 -5 191 8 274 49 100 50
157 134 186 275 14 70 15 199 13 1129 l-3 1050 -25 69 c-58 165 -176 246 -376
260 -43 2 -102 1 -131 -4z m204 -286 c15 -11 37 -38 48 -60 20 -38 20 -59 20
-1069 0 -1010 0 -1031 -20 -1069 -36 -70 -108 -102 -196 -86 -53 10 -87 36
-113 86 -21 39 -21 47 -21 1069 l0 1030 25 45 c35 62 76 82 162 78 48 -3 75
-9 95 -24z"/>
<path d="M10753 39720 c-173 -31 -268 -115 -320 -285 -17 -57 -18 -120 -18
-1130 l0 -1070 22 -70 c57 -180 171 -262 378 -273 118 -5 191 8 274 49 100 50
157 134 186 275 14 70 15 199 13 1129 l-3 1050 -25 69 c-58 165 -176 246 -376
260 -43 2 -102 1 -131 -4z m204 -286 c15 -11 37 -38 48 -60 20 -38 20 -59 20
-1069 0 -1010 0 -1031 -20 -1069 -36 -70 -108 -102 -196 -86 -53 10 -87 36
-113 86 -21 39 -21 47 -21 1069 l0 1030 25 45 c35 62 76 82 162 78 48 -3 75
-9 95 -24z"/>
<path d="M1727 39693 c-4 -3 -7 -629 -7 -1390 l0 -1383 380 0 381 0 -3 128 -3
127 -247 3 -248 2 0 510 0 510 170 0 170 0 0 130 0 130 -170 0 -170 0 0 485 0
485 240 0 240 0 0 135 0 135 -363 0 c-200 0 -367 -3 -370 -7z"/>
<path d="M4780 38310 l0 -1390 110 0 110 0 2 992 3 992 229 -970 c126 -533
231 -979 234 -991 4 -22 8 -23 133 -23 l129 0 0 1390 0 1391 -112 -3 -113 -3
0 -997 c0 -548 -1 -996 -2 -995 0 1 -94 447 -208 992 -113 544 -209 993 -211
997 -3 4 -72 8 -155 8 l-149 0 0 -1390z"/>
<path d="M5977 39693 c-4 -3 -7 -629 -7 -1390 l0 -1384 288 3 c272 3 290 5
344 26 75 30 160 108 191 175 53 114 52 86 52 1182 0 936 -1 1025 -17 1082
-51 182 -158 277 -341 302 -85 12 -499 15 -510 4z m530 -289 c15 -11 39 -41
53 -65 l25 -44 0 -990 0 -990 -22 -47 c-35 -76 -64 -88 -210 -88 l-123 0 0
1126 0 1126 124 -4 c108 -3 128 -6 153 -24z"/>
<path d="M7537 39693 c-4 -3 -7 -629 -7 -1390 l0 -1383 130 0 130 0 0 635 0
635 170 0 170 0 0 130 0 130 -170 0 -170 0 0 490 0 490 250 0 251 0 -3 133 -3
132 -371 3 c-204 1 -373 -1 -377 -5z"/>
<path d="M8447 39693 c-4 -3 -7 -629 -7 -1390 l0 -1383 380 0 381 0 -3 128 -3
127 -247 3 -248 2 0 1260 0 1260 -123 0 c-68 0 -127 -3 -130 -7z"/>
<path d="M11517 39693 c-4 -3 -7 -629 -7 -1390 l0 -1383 130 0 130 0 0 624 0
625 98 3 c53 2 98 3 100 2 6 -2 112 -665 153 -951 l43 -303 141 0 c142 0 142
0 139 23 -44 273 -136 805 -176 1016 -51 266 -51 273 -32 283 47 25 122 116
143 174 39 104 43 151 39 553 -4 364 -5 390 -26 451 -55 167 -160 244 -365
270 -90 11 -500 14 -510 3z m543 -285 c91 -46 103 -117 98 -550 -3 -290 -4
-305 -26 -349 -36 -74 -80 -92 -234 -97 l-128 -4 0 511 0 511 123 0 c107 0
128 -3 167 -22z"/>
<path d="M30150 38575 c0 -12 -18 -15 -105 -15 -87 0 -105 -3 -105 -15 0 -12
-15 -15 -75 -15 -60 0 -75 -3 -75 -15 0 -12 -14 -15 -65 -15 -51 0 -65 -3 -65
-15 0 -12 -13 -15 -60 -15 -47 0 -60 -3 -60 -15 0 -10 -10 -15 -30 -15 -20 0
-30 -5 -30 -15 0 -8 -7 -15 -15 -15 -8 0 -15 -9 -15 -20 0 -11 -7 -20 -15 -20
-8 0 -15 9 -15 20 0 16 -7 20 -30 20 -23 0 -30 -4 -30 -20 0 -16 7 -20 30 -20
29 0 30 -2 30 -45 0 -33 4 -45 15 -45 10 0 15 -10 15 -30 0 -20 -5 -30 -15
-30 -8 0 -15 -7 -15 -15 0 -10 10 -15 30 -15 29 0 30 2 30 45 0 33 -4 45 -15
45 -11 0 -15 12 -15 45 0 43 1 45 30 45 23 0 30 4 30 20 0 11 7 20 15 20 11 0
15 -12 15 -50 0 -38 4 -50 15 -50 8 0 15 -7 15 -15 0 -10 -10 -15 -30 -15 -20
0 -30 -5 -30 -15 0 -8 7 -15 15 -15 8 0 15 -7 15 -15 0 -10 10 -15 30 -15 20
0 30 5 30 15 0 10 10 15 30 15 20 0 30 5 30 15 0 12 14 15 65 15 51 0 65 3 65
15 0 12 15 15 75 15 60 0 75 3 75 15 0 12 17 15 90 15 73 0 90 3 90 15 0 13
26 15 170 15 163 0 170 1 170 20 0 19 7 20 185 20 178 0 185 -1 185 -20 0 -19
7 -20 170 -20 144 0 170 -2 170 -15 0 -12 17 -15 90 -15 73 0 90 -3 90 -15 0
-12 15 -15 75 -15 60 0 75 -3 75 -15 0 -12 14 -15 65 -15 51 0 65 -3 65 -15 0
-10 10 -15 30 -15 20 0 30 -5 30 -15 0 -10 10 -15 30 -15 20 0 30 5 30 15 0 8
7 15 15 15 8 0 15 7 15 15 0 10 -10 15 -30 15 -20 0 -30 5 -30 15 0 11 12 15
45 15 l45 0 0 -60 0 -60 30 0 c20 0 30 5 30 15 0 8 -7 15 -15 15 -11 0 -15 12
-15 45 0 33 4 45 15 45 10 0 15 10 15 30 0 27 3 30 30 30 23 0 30 4 30 20 0
11 -7 20 -15 20 -8 0 -15 7 -15 15 0 8 -7 15 -15 15 -10 0 -15 -11 -15 -35 0
-24 -5 -35 -15 -35 -10 0 -15 -10 -15 -30 0 -20 -5 -30 -15 -30 -8 0 -15 7
-15 15 0 10 -10 15 -30 15 -28 0 -30 3 -30 35 0 24 5 35 15 35 8 0 15 -9 15
-20 0 -11 7 -20 15 -20 10 0 15 11 15 35 0 35 0 35 -45 35 -33 0 -45 4 -45 15
0 11 -12 15 -45 15 -33 0 -45 4 -45 15 0 12 -14 15 -65 15 -51 0 -65 3 -65 15
0 12 -17 15 -90 15 -73 0 -90 3 -90 15 0 12 -17 15 -90 15 -73 0 -90 3 -90 15
0 13 -62 15 -495 15 -433 0 -495 -2 -495 -15z"/>
<path d="M29360 38545 c0 -10 -10 -15 -30 -15 -20 0 -30 -5 -30 -15 0 -11 -12
-15 -50 -15 -38 0 -50 -4 -50 -15 0 -11 -12 -15 -45 -15 -33 0 -45 -4 -45 -15
0 -11 -12 -15 -45 -15 -33 0 -45 -4 -45 -15 0 -10 -10 -15 -30 -15 -23 0 -30
-4 -30 -20 0 -16 7 -20 30 -20 23 0 30 4 30 20 0 17 7 20 45 20 33 0 45 4 45
15 0 11 12 15 45 15 33 0 45 4 45 15 0 11 12 15 50 15 38 0 50 4 50 15 0 10
10 15 30 15 20 0 30 5 30 15 0 11 12 15 45 15 33 0 45 4 45 15 0 11 -12 15
-45 15 -33 0 -45 -4 -45 -15z"/>
<path d="M29020 38265 c0 -10 -10 -15 -30 -15 -20 0 -30 -5 -30 -15 0 -10 -10
-15 -30 -15 -20 0 -30 -5 -30 -15 0 -10 -10 -15 -30 -15 -20 0 -30 -5 -30 -15
0 -10 -10 -15 -30 -15 -20 0 -30 -5 -30 -15 0 -10 -11 -15 -35 -15 -24 0 -35
-5 -35 -15 0 -8 -7 -15 -15 -15 -8 0 -15 -7 -15 -15 0 -10 -10 -15 -30 -15
-20 0 -30 -5 -30 -15 0 -10 -10 -15 -30 -15 -20 0 -30 -5 -30 -15 0 -8 -7 -15
-15 -15 -8 0 -15 -7 -15 -15 0 -10 -10 -15 -30 -15 -20 0 -30 -5 -30 -15 0
-10 -10 -15 -30 -15 -23 0 -30 -4 -30 -20 0 -11 -7 -20 -15 -20 -8 0 -15 -7
-15 -15 0 -8 -7 -15 -15 -15 -8 0 -15 -7 -15 -15 0 -10 -10 -15 -30 -15 -20 0
-30 -5 -30 -15 0 -8 -9 -15 -20 -15 -11 0 -20 -7 -20 -15 0 -10 -10 -15 -30
-15 -20 0 -30 -5 -30 -15 0 -8 -7 -15 -15 -15 -8 0 -15 -7 -15 -15 0 -8 -7
-15 -15 -15 -8 0 -15 -7 -15 -15 0 -10 -10 -15 -30 -15 l-30 0 0 -60 c0 -47 3
-60 15 -60 8 0 15 -7 15 -15 0 -8 7 -15 15 -15 8 0 15 -7 15 -15 0 -12 13 -15
60 -15 47 0 60 3 60 15 0 8 9 15 20 15 11 0 20 7 20 15 0 8 7 15 15 15 8 0 15
7 15 15 0 8 7 15 15 15 8 0 15 7 15 15 0 10 10 15 30 15 20 0 30 5 30 15 0 8
7 15 15 15 8 0 15 7 15 15 0 8 7 15 15 15 8 0 15 7 15 15 0 10 10 15 30 15 20
0 30 5 30 15 0 8 7 15 15 15 8 0 15 7 15 15 0 10 10 15 30 15 20 0 30 5 30 15
0 8 7 15 15 15 8 0 15 7 15 15 0 10 10 15 30 15 20 0 30 5 30 15 0 10 11 15
35 15 24 0 35 5 35 15 0 10 10 15 30 15 23 0 30 4 30 20 0 16 7 20 30 20 20 0
30 5 30 15 0 8 7 15 15 15 8 0 15 7 15 15 0 11 12 15 45 15 33 0 45 4 45 15 0
11 12 15 45 15 33 0 45 4 45 15 0 8 7 15 15 15 11 0 15 12 15 45 0 33 -4 45
-15 45 -8 0 -15 7 -15 15 0 8 -7 15 -15 15 -8 0 -15 -7 -15 -15 0 -8 7 -15 15
-15 8 0 15 -7 15 -15 0 -8 -7 -15 -15 -15 -8 0 -15 -7 -15 -15 0 -8 -7 -15
-15 -15 -10 0 -15 10 -15 30 0 20 -5 30 -15 30 -10 0 -15 10 -15 30 0 29 2 30
45 30 33 0 45 4 45 15 0 8 -7 15 -15 15 -8 0 -15 7 -15 15 0 10 -10 15 -30 15
-20 0 -30 -5 -30 -15z"/>
<path d="M32210 38265 c0 -8 -7 -15 -15 -15 -8 0 -15 -7 -15 -15 0 -11 12 -15
45 -15 43 0 45 -1 45 -30 0 -20 -5 -30 -15 -30 -10 0 -15 -10 -15 -30 0 -20
-5 -30 -15 -30 -8 0 -15 7 -15 15 0 8 -7 15 -15 15 -8 0 -15 7 -15 15 0 8 7
15 15 15 8 0 15 7 15 15 0 8 -7 15 -15 15 -8 0 -15 -7 -15 -15 0 -8 -7 -15
-15 -15 -8 0 -15 7 -15 15 0 8 -7 15 -15 15 -10 0 -15 -10 -15 -30 0 -20 5
-30 15 -30 10 0 15 -10 15 -30 0 -20 5 -30 15 -30 8 0 15 -7 15 -15 0 -11 12
-15 45 -15 33 0 45 -4 45 -15 0 -10 10 -15 30 -15 20 0 30 -5 30 -15 0 -10 10
-15 30 -15 20 0 30 -5 30 -15 0 -10 10 -15 30 -15 23 0 30 -4 30 -20 0 -16 7
-20 30 -20 20 0 30 -5 30 -15 0 -10 11 -15 35 -15 24 0 35 -5 35 -15 0 -8 7
-15 15 -15 8 0 15 -7 15 -15 0 -10 10 -15 30 -15 20 0 30 -5 30 -15 0 -10 10
-15 30 -15 20 0 30 -5 30 -15 0 -8 7 -15 15 -15 8 0 15 -7 15 -15 0 -10 10
-15 30 -15 20 0 30 -5 30 -15 0 -8 7 -15 15 -15 8 0 15 -7 15 -15 0 -8 7 -15
15 -15 8 0 15 -7 15 -15 0 -10 10 -15 30 -15 20 0 30 -5 30 -15 0 -8 7 -15 15
-15 8 0 15 -7 15 -15 0 -8 7 -15 15 -15 8 0 15 -7 15 -15 0 -8 9 -15 20 -15
11 0 20 -7 20 -15 0 -12 13 -15 60 -15 47 0 60 3 60 15 0 8 7 15 15 15 10 0
15 10 15 30 0 20 5 30 15 30 11 0 15 12 15 45 0 43 -1 45 -30 45 -20 0 -30 5
-30 15 0 8 -7 15 -15 15 -8 0 -15 7 -15 15 0 10 -10 15 -30 15 -20 0 -30 5
-30 15 0 8 -7 15 -15 15 -8 0 -15 7 -15 15 0 8 -9 15 -20 15 -11 0 -20 7 -20
15 0 10 -10 15 -30 15 -20 0 -30 5 -30 15 0 8 -7 15 -15 15 -8 0 -15 7 -15 15
0 10 -10 15 -30 15 -23 0 -30 4 -30 20 0 11 -7 20 -15 20 -8 0 -15 7 -15 15 0
10 -10 15 -30 15 -20 0 -30 5 -30 15 0 8 -7 15 -15 15 -8 0 -15 7 -15 15 0 10
-10 15 -30 15 -20 0 -30 5 -30 15 0 10 -10 15 -30 15 -20 0 -30 5 -30 15 0 10
-11 15 -35 15 -24 0 -35 5 -35 15 0 8 -7 15 -15 15 -8 0 -15 7 -15 15 0 10
-10 15 -30 15 -20 0 -30 5 -30 15 0 10 -10 15 -30 15 -20 0 -30 5 -30 15 0 11
-12 15 -45 15 -33 0 -45 4 -45 15 0 8 -7 15 -15 15 -8 0 -15 7 -15 15 0 10
-10 15 -30 15 -20 0 -30 -5 -30 -15z m520 -300 c0 -8 7 -15 15 -15 8 0 15 -9
15 -20 0 -11 -7 -20 -15 -20 -10 0 -15 -10 -15 -30 0 -27 3 -30 30 -30 27 0
30 3 30 30 0 20 5 30 15 30 8 0 15 -7 15 -15 0 -10 10 -15 30 -15 20 0 30 -5
30 -15 0 -8 -7 -15 -15 -15 -8 0 -15 -7 -15 -15 0 -8 -7 -15 -15 -15 -10 0
-15 -10 -15 -30 0 -20 -5 -30 -15 -30 -8 0 -15 7 -15 15 0 8 -7 15 -15 15 -8
0 -15 7 -15 15 0 8 -7 15 -15 15 -8 0 -15 7 -15 15 0 10 -10 15 -30 15 -20 0
-30 5 -30 15 0 8 -7 15 -15 15 -10 0 -15 11 -15 35 0 24 5 35 15 35 8 0 15 7
15 15 0 10 10 15 30 15 20 0 30 -5 30 -15z"/>
<path d="M27980 37775 c0 -8 -7 -15 -15 -15 -8 0 -15 -7 -15 -15 0 -8 -7 -15
-15 -15 -8 0 -15 -7 -15 -15 0 -8 -7 -15 -15 -15 -8 0 -15 -7 -15 -15 0 -10
-10 -15 -30 -15 -20 0 -30 -5 -30 -15 0 -8 -9 -15 -20 -15 -11 0 -20 -7 -20
-15 0 -8 -7 -15 -15 -15 -8 0 -15 -7 -15 -15 0 -8 -7 -15 -15 -15 -8 0 -15 -7
-15 -15 0 -8 -7 -15 -15 -15 -8 0 -15 -7 -15 -15 0 -8 -7 -15 -15 -15 -13 0
-15 -31 -15 -215 l0 -215 30 0 c20 0 30 5 30 15 0 8 7 15 15 15 10 0 15 10 15
30 0 20 -5 30 -15 30 -10 0 -15 -10 -15 -30 0 -20 -5 -30 -15 -30 -13 0 -15
29 -15 200 0 171 2 200 15 200 10 0 15 -10 15 -30 0 -20 5 -30 15 -30 10 0 15
10 15 30 0 20 -5 30 -15 30 -8 0 -15 7 -15 15 0 8 7 15 15 15 8 0 15 7 15 15
0 10 11 15 35 15 24 0 35 5 35 15 0 8 7 15 15 15 8 0 15 7 15 15 0 8 7 15 15
15 8 0 15 7 15 15 0 8 7 15 15 15 8 0 15 7 15 15 0 8 7 15 15 15 8 0 15 7 15
15 0 10 10 15 30 15 27 0 30 3 30 30 0 20 -5 30 -15 30 -8 0 -15 -7 -15 -15z"/>
<path d="M33280 37760 c0 -20 -5 -30 -15 -30 -10 0 -15 -10 -15 -30 0 -20 5
-30 15 -30 10 0 15 10 15 30 0 27 3 30 30 30 20 0 30 -5 30 -15 0 -8 7 -15 15
-15 8 0 15 -7 15 -15 0 -8 7 -15 15 -15 8 0 15 -7 15 -15 0 -8 7 -15 15 -15 8
0 15 -7 15 -15 0 -8 7 -15 15 -15 8 0 15 -7 15 -15 0 -10 11 -15 35 -15 24 0
35 -5 35 -15 0 -8 7 -15 15 -15 8 0 15 -7 15 -15 0 -8 -7 -15 -15 -15 -10 0
-15 -10 -15 -30 0 -20 5 -30 15 -30 10 0 15 10 15 30 0 20 5 30 15 30 13 0 15
-29 15 -200 0 -171 -2 -200 -15 -200 -10 0 -15 10 -15 30 0 28 -3 30 -35 30
-32 0 -35 -2 -35 -30 0 -28 3 -30 35 -30 24 0 35 -5 35 -15 0 -8 7 -15 15 -15
8 0 15 7 15 15 0 8 7 15 15 15 13 0 15 29 15 200 0 171 -2 200 -15 200 -8 0
-15 7 -15 15 0 8 -7 15 -15 15 -8 0 -15 7 -15 15 0 8 -7 15 -15 15 -8 0 -15 7
-15 15 0 8 -9 15 -20 15 -11 0 -20 7 -20 15 0 10 -10 15 -30 15 -20 0 -30 5
-30 15 0 8 -7 15 -15 15 -8 0 -15 7 -15 15 0 8 -7 15 -15 15 -8 0 -15 7 -15
15 0 8 -7 15 -15 15 -8 0 -15 7 -15 15 0 8 -7 15 -15 15 -8 0 -15 7 -15 15 0
8 -7 15 -15 15 -10 0 -15 -10 -15 -30z"/>
<path d="M27830 37135 c0 -8 -9 -15 -20 -15 -11 0 -20 -7 -20 -15 0 -8 9 -15
20 -15 20 0 20 -7 20 -505 0 -498 0 -505 -20 -505 -11 0 -20 -7 -20 -15 0 -8
9 -15 20 -15 13 0 20 -7 20 -20 0 -16 7 -20 30 -20 23 0 30 4 30 20 0 11 -7
20 -15 20 -8 0 -15 7 -15 15 0 12 13 15 60 15 47 0 60 -3 60 -15 0 -10 -10
-15 -30 -15 -23 0 -30 -4 -30 -20 0 -17 7 -20 45 -20 38 0 45 3 45 20 0 11 7
20 15 20 13 0 15 68 15 550 l0 550 -60 0 c-47 0 -60 -3 -60 -15 0 -10 10 -15
30 -15 20 0 30 -5 30 -15 0 -12 -13 -15 -60 -15 -47 0 -60 3 -60 15 0 8 7 15
15 15 8 0 15 7 15 15 0 10 -10 15 -30 15 -20 0 -30 -5 -30 -15z"/>
<path d="M6190 36185 c0 -309 2 -355 15 -355 8 0 15 -7 15 -15 0 -10 10 -15
30 -15 l30 0 0 -765 0 -765 30 0 30 0 0 810 0 810 -30 0 -30 0 0 290 0 290
290 0 290 0 0 -45 0 -45 355 0 355 0 0 45 0 45 -305 0 c-298 0 -305 0 -305 20
0 11 -7 20 -15 20 -8 0 -15 7 -15 15 0 13 -48 15 -370 15 l-370 0 0 -355z"/>
<path d="M13510 36505 l0 -35 -305 0 -305 0 0 -45 0 -45 355 0 355 0 0 45 0
45 290 0 290 0 0 -395 0 -395 660 0 660 0 0 30 0 30 -615 0 c-540 0 -615 2
-615 15 0 8 -7 15 -15 15 -13 0 -15 49 -15 385 l0 385 -370 0 -370 0 0 -35z"/>
<path d="M47010 36490 c0 -38 4 -50 15 -50 8 0 15 -7 15 -15 0 -8 -7 -15 -15
-15 -11 0 -15 -12 -15 -45 0 -33 4 -45 15 -45 8 0 15 -7 15 -15 0 -8 -7 -15
-15 -15 -12 0 -15 -13 -15 -60 0 -47 3 -60 15 -60 10 0 15 -10 15 -30 0 -20
-5 -30 -15 -30 -12 0 -15 -14 -15 -65 0 -51 3 -65 15 -65 8 0 15 -7 15 -15 0
-8 -7 -15 -15 -15 -12 0 -15 -18 -15 -105 l0 -105 -615 0 -615 0 0 -30 0 -30
660 0 660 0 0 395 0 395 290 0 290 0 0 -45 0 -45 355 0 355 0 0 45 0 45 -305
0 -305 0 0 35 0 35 -385 0 -385 0 0 -50z"/>
<path d="M54330 36505 l0 -35 -305 0 -305 0 0 -45 0 -45 355 0 355 0 0 45 0
45 290 0 290 0 0 -290 0 -290 -30 0 -30 0 0 -810 0 -810 30 0 30 0 0 765 0
765 30 0 30 0 0 370 0 370 -370 0 -370 0 0 -35z"/>
<path d="M8700 36425 l0 -45 260 0 260 0 0 45 0 45 -260 0 -260 0 0 -45z"/>
<path d="M11220 36455 c0 -8 7 -15 15 -15 10 0 15 -10 15 -30 l0 -30 260 0
260 0 0 45 0 45 -275 0 c-238 0 -275 -2 -275 -15z"/>
<path d="M49520 36425 l0 -45 260 0 260 0 0 45 0 45 -260 0 -260 0 0 -45z"/>
<path d="M52070 36425 l0 -45 260 0 260 0 0 45 0 45 -260 0 -260 0 0 -45z"/>
<path d="M29970 36105 c0 -238 -2 -275 -15 -275 -8 0 -15 -7 -15 -15 0 -8 7
-15 15 -15 8 0 15 -7 15 -15 0 -8 -7 -15 -15 -15 -10 0 -15 -10 -15 -30 0 -20
5 -30 15 -30 8 0 15 7 15 15 0 8 7 15 15 15 10 0 15 10 15 30 0 20 5 30 15 30
8 0 15 7 15 15 0 8 -7 15 -15 15 -13 0 -15 37 -15 275 0 238 -2 275 -15 275
-13 0 -15 -37 -15 -275z"/>
<path d="M31290 36105 c0 -238 -2 -275 -15 -275 -8 0 -15 -7 -15 -15 0 -8 7
-15 15 -15 8 0 15 -7 15 -15 0 -8 -7 -15 -15 -15 -8 0 -15 -7 -15 -15 0 -8 7
-15 15 -15 8 0 15 -7 15 -15 0 -10 10 -15 30 -15 20 0 30 5 30 15 0 8 -7 15
-15 15 -10 0 -15 10 -15 30 0 20 5 30 15 30 8 0 15 7 15 15 0 8 -7 15 -15 15
-13 0 -15 37 -15 275 0 238 -2 275 -15 275 -13 0 -15 -37 -15 -275z"/>
<path d="M54640 35850 c0 -224 2 -260 15 -260 13 0 15 36 15 260 0 224 -2 260
-15 260 -13 0 -15 -36 -15 -260z"/>
<path d="M27670 35955 l0 -125 -165 0 -165 0 0 30 0 30 -370 0 -370 0 0 -75 0
-75 -550 0 -550 0 0 -30 0 -30 595 0 595 0 0 60 0 60 45 0 c33 0 45 4 45 15 0
10 10 15 30 15 20 0 30 -5 30 -15 0 -13 31 -15 215 -15 l215 0 0 -30 0 -30
490 0 490 0 0 45 0 45 -275 0 -275 0 0 110 c0 91 3 110 15 110 8 0 15 7 15 15
0 10 -10 15 -30 15 l-30 0 0 -125z"/>
<path d="M33560 36065 c0 -8 7 -15 15 -15 12 0 15 -19 15 -110 l0 -110 -295 0
c-256 0 -295 -2 -295 -15 0 -8 9 -15 20 -15 11 0 20 -7 20 -15 0 -8 -9 -15
-20 -15 -11 0 -20 -7 -20 -15 0 -13 63 -15 510 -15 l510 0 0 30 c0 20 5 30 15
30 8 0 15 7 15 15 0 8 7 15 15 15 8 0 15 -7 15 -15 0 -13 29 -15 200 -15 171
0 200 2 200 15 0 8 7 15 15 15 8 0 15 -7 15 -15 0 -8 7 -15 15 -15 8 0 15 7
15 15 0 8 7 15 15 15 8 0 15 -7 15 -15 0 -8 7 -15 15 -15 12 0 15 -13 15 -60
l0 -60 595 0 595 0 0 30 0 30 -550 0 c-482 0 -550 2 -550 15 0 8 -7 15 -15 15
-12 0 -15 13 -15 60 l0 60 -370 0 -370 0 0 -30 0 -30 -150 0 -150 0 0 125 0
125 -30 0 c-20 0 -30 -5 -30 -15z"/>
<path d="M20190 35785 l0 -45 -610 0 -610 0 0 -30 0 -30 660 0 660 0 0 30 0
30 275 0 c238 0 275 -2 275 -15 0 -8 7 -15 15 -15 8 0 15 -7 15 -15 0 -13 71
-15 580 -15 l580 0 0 30 0 30 -550 0 -550 0 0 45 0 45 -370 0 -370 0 0 -45z"/>
<path d="M29110 35785 l0 -45 155 0 c131 0 155 -2 155 -15 0 -8 7 -15 15 -15
10 0 15 -10 15 -30 0 -20 -5 -30 -15 -30 -12 0 -15 -17 -15 -95 l0 -95 -170 0
c-144 0 -170 2 -170 15 0 8 -7 15 -15 15 -13 0 -15 21 -15 125 0 104 2 125 15
125 8 0 15 7 15 15 0 10 -10 15 -30 15 -20 0 -30 -5 -30 -15 0 -8 -7 -15 -15
-15 -8 0 -15 -7 -15 -15 0 -8 7 -15 15 -15 11 0 15 -12 15 -45 0 -33 -4 -45
-15 -45 -8 0 -15 -7 -15 -15 0 -8 7 -15 15 -15 12 0 15 -14 15 -65 0 -51 3
-65 15 -65 8 0 15 -7 15 -15 0 -13 29 -15 200 -15 l200 0 0 95 c0 78 3 95 15
95 8 0 15 7 15 15 0 8 7 15 15 15 8 0 15 7 15 15 0 8 -7 15 -15 15 -8 0 -15 7
-15 15 0 8 7 15 15 15 8 0 15 7 15 15 0 8 -7 15 -15 15 -8 0 -15 7 -15 15 0
10 -10 15 -30 15 -27 0 -30 3 -30 30 l0 30 -155 0 -155 0 0 -45z"/>
<path d="M31870 35800 c0 -27 -3 -30 -30 -30 -20 0 -30 -5 -30 -15 0 -8 -7
-15 -15 -15 -8 0 -15 -7 -15 -15 0 -8 7 -15 15 -15 8 0 15 -7 15 -15 0 -8 -7
-15 -15 -15 -8 0 -15 -7 -15 -15 0 -8 7 -15 15 -15 12 0 15 -17 15 -95 0 -78
3 -95 15 -95 8 0 15 -7 15 -15 0 -13 29 -15 200 -15 171 0 200 2 200 15 0 8 7
15 15 15 12 0 15 16 15 80 0 64 -3 80 -15 80 -10 0 -15 10 -15 30 0 20 5 30
15 30 10 0 15 10 15 30 0 20 -5 30 -15 30 -8 0 -15 7 -15 15 0 8 -7 15 -15 15
-13 0 -15 -24 -15 -155 l0 -155 -170 0 c-144 0 -170 2 -170 15 0 8 -7 15 -15
15 -12 0 -15 19 -15 110 0 91 3 110 15 110 8 0 15 7 15 15 0 13 24 15 155 15
l155 0 0 45 0 45 -155 0 -155 0 0 -30z"/>
<path d="M40360 35800 c0 -20 -5 -30 -15 -30 -8 0 -15 -7 -15 -15 0 -13 -66
-15 -535 -15 -469 0 -535 -2 -535 -15 0 -8 -7 -15 -15 -15 -8 0 -15 -7 -15
-15 0 -13 73 -15 595 -15 l595 0 0 30 0 30 290 0 290 0 0 -30 0 -30 660 0 660
0 0 30 0 30 -615 0 -615 0 0 45 0 45 -365 0 -365 0 0 -30z"/>
<path d="M28320 35630 c0 -118 -2 -140 -15 -140 -8 0 -15 -7 -15 -15 0 -8 -9
-15 -20 -15 -11 0 -20 -7 -20 -15 0 -10 11 -15 35 -15 24 0 35 5 35 15 0 8 7
15 15 15 12 0 15 14 15 65 0 51 3 65 15 65 8 0 15 7 15 15 0 8 -7 15 -15 15
-11 0 -15 12 -15 45 0 33 4 45 15 45 10 0 15 -10 15 -30 0 -20 5 -30 15 -30
10 0 15 10 15 30 0 20 -5 30 -15 30 -8 0 -15 7 -15 15 0 8 -7 15 -15 15 -8 0
-15 7 -15 15 0 8 -7 15 -15 15 -13 0 -15 -22 -15 -140z"/>
<path d="M16920 35710 l0 -30 305 0 305 0 0 30 0 30 -305 0 -305 0 0 -30z"/>
<path d="M23470 35710 l0 -30 310 0 310 0 0 30 0 30 -310 0 -310 0 0 -30z"/>
<path d="M37200 35710 l0 -30 310 0 310 0 0 30 0 30 -310 0 -310 0 0 -30z"/>
<path d="M43760 35710 l0 -30 305 0 c264 0 305 2 305 15 0 8 -7 15 -15 15 -8
0 -15 7 -15 15 0 13 -39 15 -290 15 l-290 0 0 -30z"/>
<path d="M9650 33805 c0 -184 2 -215 15 -215 8 0 15 -7 15 -15 0 -13 188 -15
1653 -13 l1652 3 3 228 2 227 -30 0 c-16 0 -30 -4 -30 -10 0 -6 -108 -10 -305
-10 -197 0 -305 4 -305 10 0 6 -7 10 -15 10 -8 0 -15 -4 -15 -10 0 -6 -108
-10 -305 -10 -197 0 -305 4 -305 10 0 6 -7 10 -15 10 -8 0 -15 -4 -15 -10 0
-7 -222 -10 -645 -10 -423 0 -645 3 -645 10 0 6 -7 10 -15 10 -8 0 -15 -4 -15
-10 0 -6 -110 -10 -310 -10 -200 0 -310 4 -310 10 0 6 -13 10 -30 10 l-30 0 0
-215z"/>
<path d="M48690 33590 l0 -30 -320 0 c-278 0 -320 -2 -320 -15 0 -13 42 -15
320 -15 278 0 320 2 320 15 0 8 9 15 20 15 16 0 20 7 20 30 0 23 -4 30 -20 30
-16 0 -20 -7 -20 -30z"/>
<path d="M9680 32935 c0 -8 -7 -15 -15 -15 -13 0 -15 -29 -15 -200 0 -171 2
-200 15 -200 8 0 15 -7 15 -15 0 -13 191 -15 1655 -15 l1655 0 0 230 0 230
-30 0 c-20 0 -30 -5 -30 -15 0 -13 -41 -15 -305 -15 -264 0 -305 2 -305 15 0
8 -7 15 -15 15 -8 0 -15 -7 -15 -15 0 -13 -41 -15 -305 -15 -264 0 -305 2
-305 15 0 8 -7 15 -15 15 -8 0 -15 -7 -15 -15 0 -13 -41 -15 -310 -15 -269 0
-310 2 -310 15 0 10 -10 15 -30 15 -20 0 -30 -5 -30 -15 0 -13 -41 -15 -305
-15 -264 0 -305 2 -305 15 0 8 -7 15 -15 15 -8 0 -15 -7 -15 -15 0 -13 -41
-15 -310 -15 -269 0 -310 2 -310 15 0 8 -7 15 -15 15 -8 0 -15 -7 -15 -15z"/>
<path d="M21820 32935 c0 -8 -4 -15 -10 -15 -6 0 -10 -78 -10 -215 l0 -215
1020 0 1020 0 0 215 c0 184 -2 215 -15 215 -8 0 -15 7 -15 15 0 8 -7 15 -15
15 -8 0 -15 -7 -15 -15 0 -13 -41 -15 -305 -15 -264 0 -305 2 -305 15 0 8 -7
15 -15 15 -8 0 -15 -7 -15 -15 0 -13 -41 -15 -310 -15 -269 0 -310 2 -310 15
0 10 -10 15 -30 15 -20 0 -30 -5 -30 -15 0 -13 -41 -15 -305 -15 -264 0 -305
2 -305 15 0 8 -7 15 -15 15 -8 0 -15 -7 -15 -15z"/>
<path d="M6280 32475 l0 -385 30 0 30 0 0 385 0 385 -30 0 -30 0 0 -385z"/>
<path d="M16490 32830 c0 -27 3 -30 30 -30 20 0 30 -5 30 -15 0 -13 31 -15
215 -15 l215 0 0 -385 0 -385 -155 0 c-131 0 -155 -2 -155 -15 0 -8 -7 -15
-15 -15 -12 0 -15 -18 -15 -105 0 -87 3 -105 15 -105 8 0 15 -9 15 -20 0 -17
7 -20 45 -20 l45 0 0 -380 c0 -331 -2 -380 -15 -380 -8 0 -15 -7 -15 -15 0
-12 -20 -15 -120 -15 l-120 0 0 -30 c0 -27 3 -30 30 -30 20 0 30 5 30 15 0 13
175 15 1515 15 1340 0 1515 -2 1515 -15 0 -10 10 -15 30 -15 27 0 30 3 30 30
l0 30 -230 0 -230 0 0 395 0 395 140 0 c133 0 140 1 140 20 0 11 7 20 15 20
12 0 15 18 15 105 0 87 -3 105 -15 105 -8 0 -15 7 -15 15 0 10 -10 15 -30 15
l-30 0 0 385 0 385 90 0 c73 0 90 3 90 15 0 10 10 15 30 15 27 0 30 3 30 30 0
27 -3 30 -30 30 -27 0 -30 -3 -30 -30 l0 -30 -90 0 c-73 0 -90 3 -90 15 0 10
-10 15 -30 15 -20 0 -30 -5 -30 -15 0 -13 -67 -15 -540 -15 l-540 0 0 30 c0
20 -5 30 -15 30 -8 0 -15 -7 -15 -15 0 -10 -10 -15 -30 -15 -20 0 -30 5 -30
15 0 8 -7 15 -15 15 -8 0 -15 -7 -15 -15 0 -8 -7 -15 -15 -15 -8 0 -15 -7 -15
-15 0 -13 -80 -15 -660 -15 -580 0 -660 2 -660 15 0 8 -7 15 -15 15 -8 0 -15
-7 -15 -15 0 -12 -17 -15 -90 -15 -73 0 -90 3 -90 15 0 8 -7 15 -15 15 -8 0
-15 7 -15 15 0 10 -10 15 -30 15 -27 0 -30 -3 -30 -30z m670 -445 l0 -385 -75
0 -75 0 0 385 0 385 75 0 75 0 0 -385z m220 0 l0 -385 -95 0 -95 0 0 385 0
385 95 0 95 0 0 -385z m180 0 l0 -385 -75 0 -75 0 0 385 0 385 75 0 75 0 0
-385z m210 90 c0 -256 2 -295 15 -295 13 0 15 39 15 295 l0 295 80 0 80 0 0
-140 c0 -118 2 -140 15 -140 10 0 15 10 15 30 0 20 5 30 15 30 8 0 15 7 15 15
0 8 -7 15 -15 15 -12 0 -15 17 -15 95 l0 95 185 0 185 0 0 -385 0 -385 -80 0
-80 0 0 370 c0 322 -2 370 -15 370 -8 0 -15 -7 -15 -15 0 -8 -7 -15 -15 -15
-10 0 -15 -11 -15 -35 0 -24 5 -35 15 -35 13 0 15 -42 15 -320 l0 -320 -90 0
-90 0 0 185 c0 158 -2 185 -15 185 -8 0 -15 -7 -15 -15 0 -8 -7 -15 -15 -15
-8 0 -15 7 -15 15 0 11 -12 15 -45 15 -33 0 -45 -4 -45 -15 0 -10 10 -15 30
-15 20 0 30 -5 30 -15 0 -10 10 -15 30 -15 l30 0 0 -155 0 -155 -80 0 -80 0 0
30 c0 20 -5 30 -15 30 -10 0 -15 -10 -15 -30 0 -20 -5 -30 -15 -30 -10 0 -15
-10 -15 -30 0 -20 -5 -30 -15 -30 -8 0 -15 -7 -15 -15 0 -8 7 -15 15 -15 8 0
15 7 15 15 0 13 101 15 845 15 l845 0 0 -75 0 -75 -780 0 c-687 0 -780 -2
-780 -15 0 -10 -11 -15 -35 -15 -24 0 -35 5 -35 15 0 13 -68 15 -550 15 l-550
0 0 75 0 75 460 0 c402 0 460 -2 460 -15 0 -8 -7 -15 -15 -15 -8 0 -15 -7 -15
-15 0 -8 7 -15 15 -15 8 0 15 7 15 15 0 8 7 15 15 15 10 0 15 10 15 30 0 20 5
30 15 30 8 0 15 7 15 15 0 11 -12 15 -45 15 l-45 0 0 385 0 385 90 0 90 0 0
-295z m800 -90 l0 -385 -90 0 -90 0 0 385 0 385 90 0 90 0 0 -385z m180 0 l0
-385 -75 0 -75 0 0 385 0 385 75 0 75 0 0 -385z m220 0 l0 -385 -90 0 -90 0 0
385 0 385 90 0 90 0 0 -385z m180 0 l0 -385 -75 0 -75 0 0 385 0 385 75 0 75
0 0 -385z m220 0 l0 -385 -95 0 -95 0 0 385 0 385 95 0 95 0 0 -385z m-2420
-1060 l0 -395 -80 0 -80 0 0 395 0 395 80 0 80 0 0 -395z m210 15 c0 -331 -2
-380 -15 -380 -8 0 -15 -7 -15 -15 0 -12 -13 -15 -60 -15 -47 0 -60 3 -60 15
0 8 -7 15 -15 15 -13 0 -15 49 -15 380 l0 380 90 0 90 0 0 -380z m190 -15 l0
-395 -80 0 -80 0 0 395 0 395 80 0 80 0 0 -395z m210 15 c0 -331 -2 -380 -15
-380 -8 0 -15 -7 -15 -15 0 -12 -13 -15 -60 -15 -47 0 -60 3 -60 15 0 8 -7 15
-15 15 -13 0 -15 49 -15 380 l0 380 90 0 90 0 0 -380z m180 -15 l0 -395 -75 0
-75 0 0 395 0 395 75 0 75 0 0 -395z m220 15 c0 -331 -2 -380 -15 -380 -8 0
-15 -7 -15 -15 0 -12 -14 -15 -65 -15 -51 0 -65 3 -65 15 0 8 -7 15 -15 15
-13 0 -15 49 -15 380 l0 380 95 0 95 0 0 -380z m180 -15 l0 -395 -75 0 -75 0
0 395 0 395 75 0 75 0 0 -395z m220 15 c0 -331 -2 -380 -15 -380 -8 0 -15 -7
-15 -15 0 -12 -14 -15 -65 -15 -51 0 -65 3 -65 15 0 8 -7 15 -15 15 -13 0 -15
49 -15 380 l0 380 95 0 95 0 0 -380z m180 -15 l0 -395 -75 0 -75 0 0 395 0
395 75 0 75 0 0 -395z m210 15 c0 -331 -2 -380 -15 -380 -8 0 -15 -7 -15 -15
0 -12 -13 -15 -60 -15 -47 0 -60 3 -60 15 0 8 -7 15 -15 15 -13 0 -15 49 -15
380 l0 380 90 0 90 0 0 -380z m190 -15 l0 -395 -75 0 -75 0 0 395 0 395 75 0
75 0 0 -395z m210 15 c0 -331 -2 -380 -15 -380 -8 0 -15 -7 -15 -15 0 -12 -13
-15 -60 -15 -47 0 -60 3 -60 15 0 8 -7 15 -15 15 -13 0 -15 49 -15 380 l0 380
90 0 90 0 0 -380z"/>
<path d="M41650 32830 c0 -20 5 -30 15 -30 8 0 15 -7 15 -15 0 -12 18 -15 105
-15 l105 0 0 -385 0 -385 -30 0 c-20 0 -30 -5 -30 -15 0 -8 -7 -15 -15 -15
-12 0 -15 -18 -15 -105 0 -87 3 -105 15 -105 8 0 15 -9 15 -20 0 -19 7 -20
140 -20 l140 0 0 -395 0 -395 -230 0 -230 0 0 -30 c0 -27 3 -30 30 -30 20 0
30 5 30 15 0 13 127 15 1085 15 958 0 1085 -2 1085 -15 0 -10 10 -15 30 -15
20 0 30 5 30 15 0 8 -7 15 -15 15 -10 0 -15 10 -15 30 0 27 -3 30 -30 30 -20
0 -30 -5 -30 -15 0 -11 -12 -15 -45 -15 -33 0 -45 4 -45 15 0 8 -7 15 -15 15
-12 0 -15 18 -15 105 0 87 3 105 15 105 10 0 15 10 15 30 0 20 -5 30 -15 30
-10 0 -15 11 -15 35 0 24 -5 35 -15 35 -13 0 -15 -27 -15 -185 l0 -185 -75 0
-75 0 0 335 c0 291 -2 335 -15 335 -13 0 -15 -42 -15 -320 0 -278 -2 -320 -15
-320 -8 0 -15 -7 -15 -15 0 -12 -14 -15 -65 -15 -51 0 -65 3 -65 15 0 8 -7 15
-15 15 -13 0 -15 49 -15 380 l0 380 60 0 c53 0 60 2 60 20 0 11 -7 20 -15 20
-10 0 -15 10 -15 30 0 20 -5 30 -15 30 -8 0 -15 7 -15 15 0 8 -7 15 -15 15 -8
0 -15 -7 -15 -15 0 -8 7 -15 15 -15 8 0 15 -7 15 -15 0 -13 -92 -15 -765 -15
l-765 0 0 75 0 75 1350 0 c1193 0 1350 -2 1350 -15 0 -8 7 -15 15 -15 12 0 15
-13 15 -60 l0 -60 -535 0 c-469 0 -535 2 -535 15 0 8 -7 15 -15 15 -8 0 -15
-7 -15 -15 0 -8 7 -15 15 -15 10 0 15 -11 15 -35 l0 -35 90 0 90 0 0 -150 c0
-127 2 -150 15 -150 13 0 15 23 15 150 l0 150 90 0 90 0 0 -290 c0 -251 -2
-290 -15 -290 -10 0 -15 -10 -15 -30 0 -20 5 -30 15 -30 8 0 15 -7 15 -15 0
-8 7 -15 15 -15 13 0 15 44 15 335 l0 335 80 0 80 0 0 -395 0 -395 -45 0 c-33
0 -45 4 -45 15 0 8 -7 15 -15 15 -11 0 -15 -12 -15 -45 0 -43 1 -45 30 -45 20
0 30 5 30 15 0 13 44 15 335 15 291 0 335 -2 335 -15 0 -11 12 -15 45 -15 43
0 45 1 45 30 l0 30 -120 0 c-100 0 -120 3 -120 15 0 8 -7 15 -15 15 -13 0 -15
49 -15 380 l0 380 30 0 c23 0 30 4 30 20 0 11 7 20 15 20 8 0 15 7 15 15 0 8
7 15 15 15 12 0 15 15 15 75 0 60 -3 75 -15 75 -10 0 -15 10 -15 30 l0 30
-155 0 -155 0 0 385 0 385 215 0 c184 0 215 2 215 15 0 10 10 15 30 15 27 0
30 3 30 30 0 27 -3 30 -30 30 -20 0 -30 -5 -30 -15 0 -8 -7 -15 -15 -15 -8 0
-15 -7 -15 -15 0 -12 -17 -15 -90 -15 -73 0 -90 3 -90 15 0 8 -7 15 -15 15 -8
0 -15 -7 -15 -15 0 -13 -148 -15 -1275 -15 -1127 0 -1275 2 -1275 15 0 10 -10
15 -30 15 -20 0 -30 -5 -30 -15 0 -12 -17 -15 -90 -15 -73 0 -90 3 -90 15 0 8
-7 15 -15 15 -8 0 -15 7 -15 15 0 8 -7 15 -15 15 -10 0 -15 -10 -15 -30z m460
-445 l0 -385 -95 0 -95 0 0 385 0 385 95 0 95 0 0 -385z m180 0 l0 -385 -75 0
-75 0 0 385 0 385 75 0 75 0 0 -385z m210 0 l0 -385 -90 0 -90 0 0 385 0 385
90 0 90 0 0 -385z m190 0 l0 -385 -75 0 -75 0 0 385 0 385 75 0 75 0 0 -385z
m210 0 l0 -385 -90 0 -90 0 0 385 0 385 90 0 90 0 0 -385z m190 0 l0 -385 -80
0 -80 0 0 385 0 385 80 0 80 0 0 -385z m210 0 l0 -385 -90 0 -90 0 0 385 0
385 90 0 90 0 0 -385z m190 0 l0 -385 -80 0 -80 0 0 385 0 385 80 0 80 0 0
-385z m210 0 l0 -385 -90 0 -90 0 0 385 0 385 90 0 90 0 0 -385z m180 0 l0
-385 -75 0 -75 0 0 385 0 385 75 0 75 0 0 -385z m220 0 l0 -385 -95 0 -95 0 0
385 0 385 95 0 95 0 0 -385z m180 0 l0 -385 -75 0 -75 0 0 385 0 385 75 0 75
0 0 -385z m-1960 -1045 c0 -331 -2 -380 -15 -380 -8 0 -15 -7 -15 -15 0 -12
-13 -15 -60 -15 -47 0 -60 3 -60 15 0 8 -7 15 -15 15 -13 0 -15 49 -15 380 l0
380 90 0 90 0 0 -380z m180 -15 l0 -395 -75 0 -75 0 0 395 0 395 75 0 75 0 0
-395z m220 15 c0 -331 -2 -380 -15 -380 -8 0 -15 -7 -15 -15 0 -12 -13 -15
-60 -15 -47 0 -60 3 -60 15 0 8 -7 15 -15 15 -13 0 -15 49 -15 380 l0 380 90
0 90 0 0 -380z m180 -15 l0 -395 -75 0 -75 0 0 395 0 395 75 0 75 0 0 -395z
m220 15 c0 -331 -2 -380 -15 -380 -8 0 -15 -7 -15 -15 0 -12 -14 -15 -65 -15
-51 0 -65 3 -65 15 0 8 -7 15 -15 15 -13 0 -15 49 -15 380 l0 380 95 0 95 0 0
-380z m180 -15 l0 -395 -75 0 -75 0 0 395 0 395 75 0 75 0 0 -395z m1010 15
c0 -331 -2 -380 -15 -380 -8 0 -15 -7 -15 -15 0 -12 -13 -15 -60 -15 -47 0
-60 3 -60 15 0 8 -7 15 -15 15 -13 0 -15 49 -15 380 l0 380 90 0 90 0 0 -380z
m190 -15 l0 -395 -80 0 -80 0 0 395 0 395 80 0 80 0 0 -395z"/>
<path d="M54950 32475 l0 -385 30 0 30 0 0 385 0 385 -30 0 -30 0 0 -385z"/>
<path d="M51450 32505 l0 -75 -30 0 c-20 0 -30 -5 -30 -15 0 -10 10 -15 30
-15 27 0 30 -3 30 -30 0 -27 -3 -30 -30 -30 -20 0 -30 -5 -30 -15 0 -10 10
-15 30 -15 l30 0 0 -80 c0 -64 3 -80 15 -80 13 0 15 31 15 215 0 184 -2 215
-15 215 -12 0 -15 -15 -15 -75z"/>
<path d="M26840 32415 c0 -8 -7 -15 -15 -15 -13 0 -15 -29 -15 -200 l0 -200
-490 0 -490 0 0 90 c0 73 -3 90 -15 90 -8 0 -15 7 -15 15 0 12 -15 15 -75 15
l-75 0 0 -30 c0 -20 -5 -30 -15 -30 -13 0 -15 -76 -15 -625 l0 -625 -490 0
-490 0 0 90 c0 73 -3 90 -15 90 -8 0 -15 7 -15 15 0 8 -7 15 -15 15 -13 0 -15
-66 -15 -535 l0 -535 -30 0 c-27 0 -30 -3 -30 -30 0 -20 5 -30 15 -30 8 0 15
7 15 15 0 8 7 15 15 15 13 0 15 -41 15 -305 0 -264 -2 -305 -15 -305 -8 0 -15
7 -15 15 0 8 -7 15 -15 15 -8 0 -15 -7 -15 -15 0 -10 -11 -15 -35 -15 l-35 0
0 -50 c0 -43 3 -50 20 -50 16 0 20 -7 20 -30 l0 -30 60 0 c47 0 60 3 60 15 0
8 7 15 15 15 12 0 15 17 15 95 l0 95 490 0 490 0 0 -80 c0 -64 3 -80 15 -80 8
0 15 -7 15 -15 0 -8 7 -15 15 -15 8 0 15 -7 15 -15 0 -11 12 -15 45 -15 33 0
45 4 45 15 0 8 7 15 15 15 12 0 15 14 15 65 0 51 -3 65 -15 65 -8 0 -15 7 -15
15 0 8 -7 15 -15 15 -8 0 -15 -7 -15 -15 0 -8 -7 -15 -15 -15 -8 0 -15 7 -15
15 0 8 -7 15 -15 15 -12 0 -15 15 -15 75 0 60 3 75 15 75 10 0 15 10 15 30 0
20 -5 30 -15 30 -8 0 -15 7 -15 15 0 8 7 15 15 15 8 0 15 7 15 15 0 8 -7 15
-15 15 -13 0 -15 143 -15 1225 l0 1225 45 0 45 0 0 -655 c0 -576 -2 -655 -15
-655 -8 0 -15 -7 -15 -15 0 -8 7 -15 15 -15 8 0 15 7 15 15 0 8 7 15 15 15 8
0 15 7 15 15 0 8 7 15 15 15 11 0 15 12 15 45 l0 45 65 0 c51 0 65 3 65 15 0
12 -14 15 -65 15 l-65 0 0 90 0 90 170 0 c144 0 170 -2 170 -15 0 -11 12 -15
45 -15 43 0 45 -1 45 -30 0 -20 5 -30 15 -30 10 0 15 10 15 30 0 20 -5 30 -15
30 -10 0 -15 10 -15 30 l0 30 -215 0 -215 0 0 80 0 80 370 0 c322 0 370 2 370
15 0 13 -48 15 -370 15 l-370 0 0 90 0 90 490 0 490 0 0 -30 c0 -28 3 -30 35
-30 24 0 35 5 35 15 0 8 7 15 15 15 8 0 15 7 15 15 0 8 -7 15 -15 15 -13 0
-15 54 -15 430 0 423 0 430 -20 430 -11 0 -20 -7 -20 -15z m-30 -535 l0 -90
-490 0 -490 0 0 90 0 90 490 0 490 0 0 -90z m0 -200 l0 -80 -490 0 -490 0 0
80 0 80 490 0 490 0 0 -80z m-1190 -905 l0 -95 -475 0 c-416 0 -475 2 -475 15
0 8 -7 15 -15 15 -12 0 -15 14 -15 65 0 51 3 65 15 65 8 0 15 7 15 15 0 13 59
15 475 15 l475 0 0 -95z m0 -200 l0 -75 -490 0 -490 0 0 75 0 75 490 0 490 0
0 -75z m0 -200 l0 -95 -475 0 c-416 0 -475 2 -475 15 0 8 -7 15 -15 15 -12 0
-15 14 -15 65 0 51 3 65 15 65 8 0 15 7 15 15 0 13 59 15 475 15 l475 0 0 -95z
m0 -200 l0 -75 -490 0 -490 0 0 75 0 75 490 0 490 0 0 -75z m0 -195 l0 -90
-490 0 -490 0 0 75 c0 60 3 75 15 75 8 0 15 7 15 15 0 13 59 15 475 15 l475 0
0 -90z m0 -200 l0 -80 -490 0 -490 0 0 80 0 80 490 0 490 0 0 -80z m0 -200 l0
-90 -230 0 c-198 0 -230 2 -230 15 0 10 -10 15 -30 15 -20 0 -30 -5 -30 -15 0
-13 -32 -15 -230 -15 l-230 0 0 75 c0 60 3 75 15 75 8 0 15 7 15 15 0 13 59
15 475 15 l475 0 0 -90z"/>
<path d="M9650 31634 c0 -211 0 -212 23 -218 12 -3 763 -6 1670 -6 l1647 0 0
218 0 217 -1670 0 -1670 0 0 -211z"/>
<path d="M21810 31842 c-6 -2 -10 -84 -10 -218 l0 -214 1020 0 1020 0 0 218 0
217 -1010 0 c-555 0 -1014 -1 -1020 -3z"/>
<path d="M49280 31820 c0 -20 5 -30 15 -30 8 0 15 -7 15 -15 0 -13 44 -15 335
-15 291 0 335 2 335 15 0 13 -42 15 -320 15 -278 0 -320 2 -320 15 0 8 -7 15
-15 15 -8 0 -15 7 -15 15 0 8 -7 15 -15 15 -10 0 -15 -10 -15 -30z"/>
<path d="M13270 31775 c0 -13 36 -15 260 -15 224 0 260 2 260 15 0 13 -36 15
-260 15 -224 0 -260 -2 -260 -15z"/>
<path d="M47410 31740 l0 -50 320 0 c278 0 320 -2 320 -15 0 -8 7 -15 15 -15
10 0 15 10 15 30 l0 30 -320 0 -320 0 0 35 c0 24 -5 35 -15 35 -11 0 -15 -12
-15 -50z"/>
<path d="M20010 31005 c0 -13 42 -15 320 -15 278 0 320 -2 320 -15 0 -8 9 -15
20 -15 11 0 20 7 20 15 0 8 -9 15 -20 15 -11 0 -20 7 -20 15 0 13 -42 15 -320
15 -278 0 -320 -2 -320 -15z"/>
<path d="M40600 30975 c0 -38 3 -45 20 -45 16 0 20 7 20 30 l0 30 320 0 c278
0 320 2 320 15 0 13 -44 15 -340 15 l-340 0 0 -45z"/>
<path d="M9680 30755 c0 -8 -7 -15 -15 -15 -13 0 -15 -28 -15 -195 0 -167 2
-195 15 -195 8 0 15 -9 15 -20 0 -11 7 -20 15 -20 8 0 15 5 15 10 0 6 110 10
310 10 200 0 310 -4 310 -10 0 -5 7 -10 15 -10 8 0 15 5 15 10 0 6 108 10 305
10 197 0 305 -4 305 -10 0 -5 14 -10 30 -10 17 0 30 5 30 10 0 6 110 10 310
10 200 0 310 -4 310 -10 0 -5 7 -10 15 -10 8 0 15 5 15 10 0 6 108 10 305 10
197 0 305 -4 305 -10 0 -5 7 -10 15 -10 8 0 15 5 15 10 0 6 108 10 305 10 197
0 305 -4 305 -10 0 -5 14 -10 30 -10 l30 0 0 230 0 230 -1655 0 c-1464 0
-1655 -2 -1655 -15z"/>
<path d="M21820 30755 c0 -8 -4 -15 -10 -15 -6 0 -10 -78 -10 -215 l0 -215
1020 0 1020 0 0 215 c0 184 -2 215 -15 215 -8 0 -15 7 -15 15 0 8 -7 15 -15
15 -8 0 -15 -7 -15 -15 0 -13 -41 -15 -305 -15 -264 0 -305 2 -305 15 0 8 -7
15 -15 15 -8 0 -15 -7 -15 -15 0 -13 -41 -15 -310 -15 -269 0 -310 2 -310 15
0 10 -10 15 -30 15 -20 0 -30 -5 -30 -15 0 -13 -41 -15 -305 -15 -264 0 -305
2 -305 15 0 8 -7 15 -15 15 -8 0 -15 -7 -15 -15z"/>
<path d="M6280 30300 l0 -380 30 0 30 0 0 380 0 380 -30 0 -30 0 0 -380z"/>
<path d="M20810 30665 c0 -13 36 -15 260 -15 224 0 260 2 260 15 0 13 -36 15
-260 15 -224 0 -260 -2 -260 -15z"/>
<path d="M54950 30300 l0 -380 30 0 30 0 0 380 0 380 -30 0 -30 0 0 -380z"/>
<path d="M39900 30635 c0 -13 39 -15 290 -15 251 0 290 2 290 15 0 13 -39 15
-290 15 -251 0 -290 -2 -290 -15z"/>
<path d="M9650 29453 l0 -212 33 -6 c17 -3 768 -4 1667 -3 l1635 3 3 215 2
215 -1670 0 -1670 0 0 -212z"/>
<path d="M21810 29662 c-6 -2 -10 -85 -10 -223 l0 -219 1018 2 1017 3 3 220 2
220 -1010 0 c-555 0 -1014 -1 -1020 -3z"/>
<path d="M52650 29655 c0 -13 31 -15 215 -15 184 0 215 -2 215 -15 0 -8 7 -15
15 -15 8 0 15 7 15 15 0 13 31 15 215 15 184 0 215 2 215 15 0 13 -56 15 -445
15 -389 0 -445 -2 -445 -15z"/>
<path d="M9680 28583 c0 -7 -7 -13 -15 -13 -13 0 -15 -29 -15 -200 0 -171 2
-200 15 -200 8 0 15 -6 15 -12 0 -10 338 -13 1655 -13 l1655 0 0 225 0 225
-1655 0 c-1317 0 -1655 -3 -1655 -12z"/>
<path d="M21813 28585 c-10 -10 -13 -70 -13 -224 0 -181 2 -210 16 -215 9 -3
468 -6 1020 -6 l1004 0 0 220 c0 189 -2 220 -15 220 -8 0 -15 5 -15 10 0 6 -7
10 -15 10 -8 0 -15 -4 -15 -10 0 -6 -108 -10 -305 -10 -197 0 -305 4 -305 10
0 6 -7 10 -15 10 -8 0 -15 -4 -15 -10 0 -6 -110 -10 -310 -10 -200 0 -310 4
-310 10 0 6 -13 10 -30 10 -16 0 -30 -4 -30 -10 0 -6 -108 -10 -305 -10 -197
0 -305 4 -305 10 0 15 -23 12 -37 -5z"/>
<path d="M6280 28125 l0 -385 30 0 30 0 0 385 0 385 -30 0 -30 0 0 -385z"/>
<path d="M54950 28125 l0 -385 30 0 30 0 0 385 0 385 -30 0 -30 0 0 -385z"/>
<path d="M26840 28030 l0 -290 250 0 250 0 0 290 0 290 -250 0 -250 0 0 -290z
m460 0 l0 -260 -210 0 -210 0 0 260 0 260 210 0 210 0 0 -260z"/>
<path d="M33950 28030 l0 -290 245 0 245 0 0 290 0 290 -30 0 c-20 0 -30 -5
-30 -15 0 -8 7 -15 15 -15 13 0 15 -36 15 -260 l0 -260 -210 0 -210 0 0 260
c0 224 2 260 15 260 8 0 15 7 15 15 0 10 -11 15 -35 15 l-35 0 0 -290z"/>
<path d="M14130 28110 l0 -60 1900 0 c1682 0 1900 2 1900 15 0 13 -213 15
-1855 15 l-1855 0 0 30 c0 20 -5 30 -15 30 -10 0 -15 -10 -15 -30 0 -20 -5
-30 -15 -30 -11 0 -15 12 -15 45 0 33 -4 45 -15 45 -12 0 -15 -13 -15 -60z"/>
<path d="M41130 28110 l0 -30 180 0 c153 0 180 -2 180 -15 0 -8 7 -15 15 -15
8 0 15 7 15 15 0 8 7 15 15 15 10 0 15 10 15 30 0 27 -3 30 -30 30 -20 0 -30
-5 -30 -15 0 -13 -25 -15 -165 -15 -140 0 -165 2 -165 15 0 8 -7 15 -15 15
-10 0 -15 -10 -15 -30z"/>
<path d="M42290 28110 c0 -20 5 -30 15 -30 8 0 15 -7 15 -15 0 -8 7 -15 15
-15 8 0 15 7 15 15 0 13 27 15 185 15 158 0 185 2 185 15 0 13 -27 15 -185 15
-158 0 -185 2 -185 15 0 10 -10 15 -30 15 -27 0 -30 -3 -30 -30z"/>
<path d="M43180 27940 c0 -20 7 -20 380 -20 331 0 380 -2 380 -15 0 -8 9 -15
20 -15 11 0 20 7 20 15 0 13 47 15 365 15 318 0 365 -2 365 -15 0 -8 7 -15 15
-15 8 0 15 7 15 15 0 12 19 15 110 15 l110 0 0 -350 c0 -304 2 -350 15 -350
13 0 15 46 15 350 l0 350 365 0 c318 0 365 -2 365 -15 0 -8 7 -15 15 -15 8 0
15 7 15 15 0 13 61 15 490 15 429 0 490 -2 490 -15 0 -8 7 -15 15 -15 8 0 15
7 15 15 0 13 21 15 125 15 l125 0 0 -75 c0 -60 3 -75 15 -75 12 0 15 17 15 95
l0 95 -1930 0 c-1923 0 -1930 0 -1930 -20z"/>
<path d="M30610 27905 c0 -8 7 -15 15 -15 8 0 15 -7 15 -15 0 -8 -7 -15 -15
-15 -8 0 -15 -7 -15 -15 0 -11 12 -15 50 -15 38 0 50 4 50 15 0 8 7 15 15 15
12 0 15 -17 15 -90 l0 -90 -80 0 c-64 0 -80 3 -80 15 0 8 -7 15 -15 15 -10 0
-15 10 -15 30 l0 30 -980 0 c-864 0 -980 -2 -980 -15 0 -13 29 -15 200 -15
l200 0 0 -30 0 -30 -185 0 c-158 0 -185 2 -185 15 0 10 -10 15 -30 15 -27 0
-30 -3 -30 -30 l0 -30 215 0 215 0 0 -445 0 -445 -335 0 -335 0 0 -125 c0
-104 -2 -125 -15 -125 -8 0 -15 -7 -15 -15 0 -13 -56 -15 -445 -15 l-445 0 0
215 0 215 -50 0 -50 0 0 -965 c0 -851 -2 -965 -15 -965 -8 0 -15 -7 -15 -15 0
-13 -31 -15 -215 -15 l-215 0 0 -230 0 -230 215 0 c184 0 215 -2 215 -15 0 -8
7 -15 15 -15 13 0 15 -117 15 -995 0 -878 -2 -995 -15 -995 -8 0 -15 -7 -15
-15 0 -8 -7 -15 -15 -15 -12 0 -15 15 -15 75 l0 75 -45 0 -45 0 0 -75 0 -75
30 0 c20 0 30 -5 30 -15 0 -12 14 -15 65 -15 51 0 65 3 65 15 0 8 7 15 15 15
8 0 15 7 15 15 0 8 7 15 15 15 10 0 15 10 15 30 l0 30 460 0 c402 0 460 -2
460 -15 0 -8 -7 -15 -15 -15 -8 0 -15 -7 -15 -15 0 -8 7 -15 15 -15 11 0 15
-12 15 -45 0 -33 4 -45 15 -45 10 0 15 -10 15 -30 l0 -30 290 0 290 0 0 885 0
885 -185 0 -185 0 0 -30 c0 -20 5 -30 15 -30 8 0 15 7 15 15 0 13 24 15 155
15 l155 0 0 -855 0 -855 -260 0 c-224 0 -260 2 -260 15 0 8 -7 15 -15 15 -8 0
-15 7 -15 15 0 11 12 15 45 15 33 0 45 4 45 15 0 8 7 15 15 15 8 0 15 7 15 15
0 8 7 15 15 15 12 0 15 13 15 60 l0 60 -30 0 c-27 0 -30 -3 -30 -30 0 -20 -5
-30 -15 -30 -8 0 -15 -7 -15 -15 0 -8 -7 -15 -15 -15 -11 0 -15 12 -15 45 0
33 -4 45 -15 45 -12 0 -15 16 -15 80 0 64 3 80 15 80 12 0 15 13 15 60 0 47
-3 60 -15 60 -11 0 -15 12 -15 45 0 33 4 45 15 45 10 0 15 10 15 30 0 20 -5
30 -15 30 -12 0 -15 15 -15 75 0 60 3 75 15 75 10 0 15 11 15 35 0 24 -5 35
-15 35 -12 0 -15 15 -15 75 0 60 3 75 15 75 12 0 15 13 15 60 0 47 -3 60 -15
60 -8 0 -15 7 -15 15 0 8 7 15 15 15 12 0 15 14 15 65 0 51 -3 65 -15 65 -12
0 -15 15 -15 75 0 60 3 75 15 75 10 0 15 10 15 30 0 20 -5 30 -15 30 -12 0
-15 17 -15 90 0 73 3 90 15 90 8 0 15 7 15 15 0 8 -7 15 -15 15 -12 0 -15 14
-15 65 0 51 3 65 15 65 12 0 15 17 15 90 0 73 -3 90 -15 90 -11 0 -15 12 -15
45 0 33 4 45 15 45 8 0 15 7 15 15 0 8 -7 15 -15 15 -12 0 -15 17 -15 95 0 78
3 95 15 95 10 0 15 10 15 30 0 20 -5 30 -15 30 -12 0 -15 15 -15 75 0 60 3 75
15 75 12 0 15 13 15 60 0 47 -3 60 -15 60 -8 0 -15 7 -15 15 0 8 7 15 15 15
12 0 15 14 15 65 0 51 -3 65 -15 65 -12 0 -15 15 -15 75 0 60 3 75 15 75 10 0
15 10 15 30 0 20 -5 30 -15 30 -12 0 -15 15 -15 75 0 60 3 75 15 75 10 0 15
11 15 35 0 24 -5 35 -15 35 -11 0 -15 12 -15 45 0 33 4 45 15 45 12 0 15 17
15 90 0 73 -3 90 -15 90 -11 0 -15 12 -15 45 0 33 4 45 15 45 10 0 15 11 15
35 0 24 -5 35 -15 35 -12 0 -15 17 -15 90 0 73 3 90 15 90 8 0 15 7 15 15 0 8
-7 15 -15 15 -12 0 -15 17 -15 90 0 73 3 90 15 90 12 0 15 14 15 65 0 51 -3
65 -15 65 -12 0 -15 13 -15 60 0 47 3 60 15 60 8 0 15 7 15 15 0 12 13 15 60
15 47 0 60 -3 60 -15 0 -11 12 -15 45 -15 33 0 45 4 45 15 0 12 13 15 60 15
47 0 60 -3 60 -15 0 -10 11 -15 35 -15 24 0 35 -5 35 -15 0 -8 -9 -15 -20 -15
-11 0 -20 -7 -20 -15 0 -10 11 -15 35 -15 32 0 35 2 35 30 0 20 5 30 15 30 8
0 15 7 15 15 0 12 15 15 75 15 60 0 75 -3 75 -15 0 -10 10 -15 30 -15 20 0 30
5 30 15 0 12 15 15 75 15 60 0 75 -3 75 -15 0 -10 11 -15 35 -15 24 0 35 5 35
15 0 11 12 15 45 15 33 0 45 -4 45 -15 0 -12 13 -15 60 -15 47 0 60 3 60 15 0
12 13 15 60 15 47 0 60 -3 60 -15 0 -12 14 -15 65 -15 51 0 65 3 65 15 0 12
13 15 60 15 47 0 60 -3 60 -15 0 -11 12 -15 45 -15 33 0 45 4 45 15 0 12 13
15 60 15 47 0 60 -3 60 -15 0 -11 12 -15 45 -15 33 0 45 4 45 15 0 11 12 15
50 15 38 0 50 -4 50 -15 0 -12 13 -15 60 -15 47 0 60 3 60 15 0 10 10 15 30
15 20 0 30 -5 30 -15 0 -8 7 -15 15 -15 10 0 15 -10 15 -30 0 -20 -5 -30 -15
-30 -8 0 -15 -7 -15 -15 0 -10 10 -15 30 -15 20 0 30 5 30 15 0 10 10 15 30
15 29 0 30 2 30 45 l0 45 45 0 c33 0 45 -4 45 -15 0 -8 9 -15 20 -15 11 0 20
7 20 15 0 10 10 15 30 15 29 0 30 -2 30 -45 l0 -45 -80 0 c-64 0 -80 -3 -80
-15 0 -8 7 -15 15 -15 8 0 15 -7 15 -15 0 -11 12 -15 50 -15 38 0 50 4 50 15
0 10 10 15 30 15 l30 0 0 60 c0 47 -3 60 -15 60 -8 0 -15 7 -15 15 0 12 -17
15 -95 15 l-95 0 0 445 0 445 95 0 c78 0 95 3 95 15 0 8 7 15 15 15 12 0 15
17 15 90 0 73 -3 90 -15 90 -8 0 -15 7 -15 15 0 10 -10 15 -30 15 -20 0 -30 5
-30 15 0 10 -11 15 -35 15 -24 0 -35 -5 -35 -15z m-1410 -270 c0 -8 9 -15 20
-15 20 0 20 -7 20 -415 0 -408 0 -415 -20 -415 -11 0 -20 -7 -20 -15 0 -12
-15 -15 -75 -15 l-75 0 0 445 0 445 75 0 c60 0 75 -3 75 -15z m250 -415 c0
-376 -2 -430 -15 -430 -8 0 -15 -7 -15 -15 0 -12 -15 -15 -75 -15 l-75 0 0
445 0 445 90 0 90 0 0 -430z m210 0 c0 -376 -2 -430 -15 -430 -8 0 -15 -7 -15
-15 0 -12 -15 -15 -75 -15 l-75 0 0 445 0 445 90 0 90 0 0 -430z m220 0 c0
-376 -2 -430 -15 -430 -8 0 -15 -7 -15 -15 0 -12 -16 -15 -80 -15 l-80 0 0
445 0 445 95 0 95 0 0 -430z m210 -15 l0 -445 -90 0 -90 0 0 445 0 445 90 0
90 0 0 -445z m220 0 l0 -445 -95 0 -95 0 0 445 0 445 95 0 95 0 0 -445z m210
0 c0 -389 -2 -445 -15 -445 -8 0 -15 7 -15 15 0 10 -10 15 -30 15 -20 0 -30
-5 -30 -15 0 -11 -12 -15 -45 -15 l-45 0 0 445 0 445 90 0 90 0 0 -445z
m-2230 -770 c0 -8 7 -15 15 -15 12 0 15 -15 15 -75 l0 -75 -460 0 -460 0 0 90
0 90 445 0 c389 0 445 -2 445 -15z m0 -210 c0 -8 7 -15 15 -15 12 0 15 -15 15
-75 l0 -75 -460 0 -460 0 0 90 0 90 445 0 c389 0 445 -2 445 -15z m0 -220 c0
-8 7 -15 15 -15 12 0 15 -15 15 -75 l0 -75 -460 0 -460 0 0 90 0 90 445 0
c389 0 445 -2 445 -15z m0 -210 c0 -8 7 -15 15 -15 12 0 15 -15 15 -75 l0 -75
-460 0 -460 0 0 90 0 90 445 0 c389 0 445 -2 445 -15z m0 -215 c0 -11 7 -20
15 -20 12 0 15 -15 15 -75 l0 -75 -460 0 -460 0 0 95 0 95 445 0 c438 0 445 0
445 -20z m-40 -215 c0 -10 11 -15 35 -15 l35 0 0 -75 c0 -60 -3 -75 -15 -75
-8 0 -15 -7 -15 -15 0 -13 -56 -15 -445 -15 l-445 0 0 90 c0 73 3 90 15 90 8
0 15 7 15 15 0 13 52 15 410 15 358 0 410 -2 410 -15z m70 -305 c0 -64 -3 -80
-15 -80 -8 0 -15 -7 -15 -15 0 -13 -56 -15 -445 -15 l-445 0 0 95 0 95 460 0
460 0 0 -80z m-1020 -340 l0 -200 -210 0 -210 0 0 200 0 200 210 0 210 0 0
-200z m1020 125 c0 -60 -3 -75 -15 -75 -8 0 -15 -7 -15 -15 0 -13 -56 -15
-445 -15 l-445 0 0 90 0 90 460 0 460 0 0 -75z m0 -215 c0 -64 -3 -80 -15 -80
-8 0 -15 -7 -15 -15 0 -13 -56 -15 -445 -15 l-445 0 0 95 0 95 460 0 460 0 0
-80z m0 -215 c0 -60 -3 -75 -15 -75 -8 0 -15 -7 -15 -15 0 -13 -56 -15 -445
-15 l-445 0 0 90 0 90 460 0 460 0 0 -75z m0 -230 l0 -95 -460 0 -460 0 0 95
0 95 460 0 460 0 0 -95z m-30 -140 c0 -8 7 -15 15 -15 12 0 15 -15 15 -75 l0
-75 -460 0 -460 0 0 90 0 90 445 0 c389 0 445 -2 445 -15z m0 -210 c0 -8 7
-15 15 -15 12 0 15 -15 15 -75 l0 -75 -460 0 -460 0 0 90 0 90 445 0 c389 0
445 -2 445 -15z m0 -220 c0 -8 7 -15 15 -15 12 0 15 -15 15 -75 l0 -75 -460 0
-460 0 0 90 0 90 445 0 c389 0 445 -2 445 -15z m0 -210 c0 -8 7 -15 15 -15 12
0 15 -15 15 -75 l0 -75 -460 0 -460 0 0 90 0 90 445 0 c389 0 445 -2 445 -15z
m0 -215 c0 -11 7 -20 15 -20 12 0 15 -15 15 -75 0 -60 -3 -75 -15 -75 -8 0
-15 -7 -15 -15 0 -13 -56 -15 -445 -15 l-445 0 0 110 0 110 445 0 c438 0 445
0 445 -20z m30 -305 c0 -60 -3 -75 -15 -75 -8 0 -15 -7 -15 -15 0 -13 -56 -15
-445 -15 l-445 0 0 90 0 90 460 0 460 0 0 -75z m0 -215 c0 -64 -3 -80 -15 -80
-8 0 -15 -7 -15 -15 0 -13 -56 -15 -445 -15 l-445 0 0 95 0 95 460 0 460 0 0
-80z"/>
<path d="M9650 27285 c0 -165 3 -215 13 -215 6 -1 757 -1 1667 -1 l1655 0 3
215 2 216 -1670 0 -1670 0 0 -215z"/>
<path d="M21813 27485 c-10 -10 -13 -70 -13 -225 0 -161 3 -210 13 -210 12 -1
1992 -1 2015 0 9 0 12 52 12 225 l0 225 -30 0 c-16 0 -30 -4 -30 -10 0 -6
-108 -10 -305 -10 -197 0 -305 4 -305 10 0 6 -7 10 -15 10 -8 0 -15 -4 -15
-10 0 -7 -222 -10 -645 -10 -423 0 -645 3 -645 10 0 15 -23 12 -37 -5z"/>
<path d="M48850 27235 c0 -13 39 -15 290 -15 251 0 290 2 290 15 0 13 -39 15
-290 15 -251 0 -290 -2 -290 -15z"/>
<path d="M51050 27235 c0 -13 39 -15 295 -15 256 0 295 2 295 15 0 13 -39 15
-295 15 -256 0 -295 -2 -295 -15z"/>
<path d="M48690 27025 c0 -13 44 -15 340 -15 333 0 340 0 340 -20 0 -11 7 -20
15 -20 8 0 15 9 15 20 0 20 7 20 1055 20 1048 0 1055 0 1055 -20 0 -11 7 -20
15 -20 8 0 15 9 15 20 0 20 7 20 340 20 l340 0 0 -140 c0 -118 2 -140 15 -140
13 0 15 24 15 155 l0 155 -1780 0 c-1576 0 -1780 -2 -1780 -15z"/>
<path d="M6280 25900 c0 -376 -2 -430 -15 -430 -8 0 -15 -7 -15 -15 0 -13 -49
-15 -380 -15 l-380 0 0 -365 0 -365 30 0 30 0 0 -295 0 -295 45 0 45 0 0 325
c0 282 -2 325 -15 325 -8 0 -15 7 -15 15 0 10 -10 15 -30 15 l-30 0 0 275 c0
238 2 275 15 275 8 0 15 7 15 15 0 13 49 15 380 15 l380 0 0 475 0 475 -30 0
-30 0 0 -430z"/>
<path d="M54950 25855 l0 -475 380 0 c331 0 380 -2 380 -15 0 -8 7 -15 15 -15
13 0 15 -37 15 -275 l0 -275 -45 0 -45 0 0 -340 0 -340 45 0 45 0 0 295 0 295
30 0 30 0 0 365 0 365 -380 0 c-331 0 -380 2 -380 15 0 8 -7 15 -15 15 -13 0
-15 54 -15 430 l0 430 -30 0 -30 0 0 -475z"/>
<path d="M41747 26043 c-4 -3 -7 -103 -7 -222 l0 -216 1990 0 1990 0 0 208 0
207 -25 0 c-16 0 -25 6 -25 15 0 13 -224 15 -1958 15 -1077 0 -1962 -3 -1965
-7z"/>
<path d="M46790 25828 l0 -223 1937 2 c1066 1 1950 4 1966 6 15 2 27 0 27 -5
0 -4 7 -8 15 -8 13 0 15 30 15 210 0 173 -2 210 -14 210 -8 0 -16 7 -20 15 -5
13 -232 15 -1966 15 l-1960 0 0 -222z"/>
<path d="M13760 25823 l0 -218 3615 0 3615 0 0 202 c0 111 -3 208 -6 217 -6
15 -333 16 -3615 16 l-3609 0 0 -217z"/>
<path d="M21800 25823 l0 -218 1020 0 1020 0 0 218 0 217 -1020 0 -1020 0 0
-217z"/>
<path d="M9650 25810 c0 -180 2 -210 15 -210 8 0 15 -4 15 -10 0 -7 556 -10
1649 -10 1494 0 1649 1 1655 16 3 9 6 108 6 220 l0 204 -1670 0 -1670 0 0
-210z"/>
<path d="M33890 25580 c0 -331 2 -380 15 -380 13 0 15 49 15 380 0 331 -2 380
-15 380 -13 0 -15 -49 -15 -380z"/>
<path d="M36410 25105 l0 -215 335 0 335 0 0 215 0 215 -335 0 -335 0 0 -215z
m640 15 l0 -170 -30 0 c-20 0 -30 -5 -30 -15 0 -13 -36 -15 -260 -15 -224 0
-260 2 -260 15 0 8 -7 15 -15 15 -13 0 -15 26 -15 170 l0 170 305 0 305 0 0
-170z"/>
<path d="M33950 24720 l0 -260 230 0 c198 0 230 2 230 15 0 8 7 15 15 15 13 0
15 32 15 230 l0 230 -225 0 c-193 0 -225 2 -225 15 0 8 -9 15 -20 15 -19 0
-20 -7 -20 -260z m460 0 l0 -200 -210 0 -210 0 0 200 0 200 210 0 210 0 0
-200z"/>
<path d="M21800 24740 c0 -140 4 -220 10 -220 6 0 10 -7 10 -15 0 -8 7 -15 15
-15 8 0 15 9 15 20 0 20 7 20 645 20 638 0 645 0 645 -20 0 -11 7 -20 15 -20
8 0 15 9 15 20 0 20 7 20 305 20 298 0 305 0 305 -20 0 -11 7 -20 15 -20 8 0
15 7 15 15 0 8 7 15 15 15 13 0 15 28 13 218 l-3 217 -1017 3 -1018 2 0 -220z"/>
<path d="M9680 24933 c0 -7 -7 -13 -15 -13 -13 0 -15 -29 -15 -200 0 -171 2
-200 15 -200 8 0 15 -6 15 -12 0 -10 338 -13 1655 -13 l1655 0 0 225 0 225
-1655 0 c-1317 0 -1655 -3 -1655 -12z"/>
<path d="M13760 24720 l0 -230 3615 0 3615 0 0 230 c0 198 -2 230 -15 230 -8
0 -15 -4 -15 -10 0 -6 -108 -10 -305 -10 -197 0 -305 4 -305 10 0 6 -13 10
-30 10 -16 0 -30 -4 -30 -10 0 -6 -110 -10 -310 -10 -200 0 -310 4 -310 10 0
6 -7 10 -15 10 -8 0 -15 -4 -15 -10 0 -6 -108 -10 -305 -10 -197 0 -305 4
-305 10 0 6 -7 10 -15 10 -8 0 -15 -4 -15 -10 0 -6 -108 -10 -305 -10 -197 0
-305 4 -305 10 0 6 -13 10 -30 10 -16 0 -30 -4 -30 -10 0 -6 -105 -10 -295
-10 -190 0 -295 4 -295 10 0 6 -13 10 -30 10 -16 0 -30 -4 -30 -10 0 -6 -108
-10 -305 -10 -197 0 -305 4 -305 10 0 6 -7 10 -15 10 -8 0 -15 -4 -15 -10 0
-6 -108 -10 -305 -10 -197 0 -305 4 -305 10 0 6 -7 10 -15 10 -8 0 -15 -4 -15
-10 0 -6 -110 -10 -310 -10 -200 0 -310 4 -310 10 0 6 -13 10 -30 10 -16 0
-30 -4 -30 -10 0 -6 -108 -10 -305 -10 -197 0 -305 4 -305 10 0 6 -7 10 -15
10 -8 0 -15 -4 -15 -10 0 -6 -110 -10 -310 -10 -200 0 -310 4 -310 10 0 6 -7
10 -15 10 -8 0 -15 -4 -15 -10 0 -6 -108 -10 -305 -10 -197 0 -305 4 -305 10
0 6 -13 10 -30 10 l-30 0 0 -230z"/>
<path d="M41740 24720 l0 -230 30 0 c20 0 30 5 30 15 0 13 39 15 290 15 251 0
290 -2 290 -15 0 -10 10 -15 30 -15 20 0 30 5 30 15 0 13 41 15 310 15 269 0
310 -2 310 -15 0 -8 7 -15 15 -15 8 0 15 7 15 15 0 13 41 15 305 15 264 0 305
-2 305 -15 0 -8 7 -15 15 -15 8 0 15 7 15 15 0 13 41 15 305 15 264 0 305 -2
305 -15 0 -10 10 -15 30 -15 20 0 30 5 30 15 0 13 41 15 310 15 269 0 310 -2
310 -15 0 -8 7 -15 15 -15 8 0 15 7 15 15 0 13 41 15 305 15 264 0 305 -2 305
-15 0 -10 10 -15 30 -15 l30 0 0 215 c0 184 -2 215 -15 215 -8 0 -15 7 -15 15
0 13 -226 15 -1975 15 l-1975 0 0 -230z"/>
<path d="M46790 24720 c0 -223 1 -230 20 -230 11 0 20 7 20 15 0 13 41 15 305
15 264 0 305 -2 305 -15 0 -10 10 -15 30 -15 20 0 30 5 30 15 0 13 41 15 305
15 264 0 305 -2 305 -15 0 -8 7 -15 15 -15 8 0 15 7 15 15 0 13 41 15 310 15
269 0 310 -2 310 -15 0 -8 7 -15 15 -15 8 0 15 7 15 15 0 13 41 15 305 15 264
0 305 -2 305 -15 0 -8 7 -15 15 -15 8 0 15 7 15 15 0 13 41 15 305 15 264 0
305 -2 305 -15 0 -10 10 -15 30 -15 20 0 30 5 30 15 0 12 45 15 310 17 290 3
310 2 310 -14 0 -10 7 -18 15 -18 13 0 15 32 15 230 l0 230 -1980 0 -1980 0 0
-230z"/>
<path d="M33890 23815 c0 -567 2 -645 15 -645 13 0 15 78 15 645 0 567 -2 645
-15 645 -13 0 -15 -78 -15 -645z"/>
<path d="M55340 24110 c0 -73 2 -80 20 -80 11 0 20 7 20 15 0 11 12 15 45 15
33 0 45 -4 45 -15 0 -10 10 -15 30 -15 20 0 30 5 30 15 0 11 12 15 45 15 33 0
45 -4 45 -15 0 -10 10 -15 30 -15 27 0 30 3 30 30 l0 30 -150 0 -150 0 0 50
c0 43 -3 50 -20 50 -18 0 -20 -7 -20 -80z"/>
<path d="M13760 23643 l0 -218 3615 0 3615 0 -2 215 -3 215 -3612 3 -3613 2 0
-217z"/>
<path d="M21800 23643 l0 -218 1020 0 1020 0 0 218 0 217 -1020 0 -1020 0 0
-217z"/>
<path d="M41740 23643 l0 -218 1990 0 1990 0 0 211 0 211 -37 7 c-21 3 -917 6
-1990 6 l-1953 0 0 -217z"/>
<path d="M46790 23643 l0 -218 1980 0 1980 0 0 211 c0 211 0 212 -22 218 -13
3 -904 6 -1980 6 l-1958 0 0 -217z"/>
<path d="M9650 23635 c0 -208 0 -210 23 -220 14 -7 581 -8 1667 -5 l1645 5 3
215 2 215 -1670 0 -1670 0 0 -210z"/>
<path d="M39380 23730 l0 -30 290 0 c251 0 290 -2 290 -15 0 -8 7 -15 15 -15
10 0 15 10 15 30 l0 30 -290 0 c-251 0 -290 2 -290 15 0 8 -7 15 -15 15 -10 0
-15 -10 -15 -30z"/>
<path d="M36960 23435 c0 -229 2 -265 15 -265 13 0 15 36 15 265 0 229 -2 265
-15 265 -13 0 -15 -36 -15 -265z"/>
<path d="M33890 21810 c0 -1176 2 -1330 15 -1330 13 0 15 154 15 1330 0 1176
-2 1330 -15 1330 -13 0 -15 -154 -15 -1330z"/>
<path d="M39380 22530 c0 -509 2 -580 15 -580 13 0 15 71 15 580 0 509 -2 580
-15 580 -13 0 -15 -71 -15 -580z"/>
<path d="M5550 22730 l0 -260 45 0 45 0 0 260 0 260 -45 0 -45 0 0 -260z"/>
<path d="M55650 22715 c0 -238 2 -275 15 -275 8 0 15 7 15 15 0 8 7 15 15 15
8 0 15 -7 15 -15 0 -8 7 -15 15 -15 13 0 15 37 15 275 l0 275 -45 0 -45 0 0
-275z"/>
<path d="M9650 22565 c0 -184 2 -215 15 -215 8 0 15 -7 15 -15 0 -13 191 -15
1655 -15 l1655 0 0 230 0 230 -30 0 c-16 0 -30 -4 -30 -10 0 -6 -108 -10 -305
-10 -197 0 -305 4 -305 10 0 6 -7 10 -15 10 -8 0 -15 -4 -15 -10 0 -6 -108
-10 -305 -10 -197 0 -305 4 -305 10 0 6 -7 10 -15 10 -8 0 -15 -4 -15 -10 0
-6 -110 -10 -310 -10 -200 0 -310 4 -310 10 0 6 -13 10 -30 10 -16 0 -30 -4
-30 -10 0 -6 -108 -10 -305 -10 -197 0 -305 4 -305 10 0 6 -7 10 -15 10 -8 0
-15 -4 -15 -10 0 -6 -110 -10 -310 -10 -200 0 -310 4 -310 10 0 6 -13 10 -30
10 l-30 0 0 -215z"/>
<path d="M13762 22548 l3 -233 3590 -3 c1975 -1 3600 0 3613 3 l22 5 0 230 c0
198 -2 230 -15 230 -8 0 -15 -7 -15 -15 0 -13 -41 -15 -305 -15 -264 0 -305 2
-305 15 0 10 -10 15 -30 15 -20 0 -30 -5 -30 -15 0 -13 -41 -15 -310 -15 -269
0 -310 2 -310 15 0 8 -7 15 -15 15 -8 0 -15 -7 -15 -15 0 -13 -41 -15 -305
-15 -264 0 -305 2 -305 15 0 8 -7 15 -15 15 -8 0 -15 -7 -15 -15 0 -13 -41
-15 -305 -15 -264 0 -305 2 -305 15 0 8 -7 15 -15 15 -8 0 -15 -7 -15 -15 0
-13 -41 -15 -310 -15 -269 0 -310 2 -310 15 0 10 -10 15 -30 15 -20 0 -30 -5
-30 -15 0 -13 -41 -15 -305 -15 -264 0 -305 2 -305 15 0 8 -7 15 -15 15 -8 0
-15 -7 -15 -15 0 -13 -41 -15 -305 -15 -264 0 -305 2 -305 15 0 8 -7 15 -15
15 -8 0 -15 -7 -15 -15 0 -13 -41 -15 -310 -15 -269 0 -310 2 -310 15 0 10
-10 15 -30 15 -20 0 -30 -5 -30 -15 0 -13 -41 -15 -305 -15 -264 0 -305 2
-305 15 0 8 -7 15 -15 15 -8 0 -15 -7 -15 -15 0 -13 -41 -15 -310 -15 -269 0
-310 2 -310 15 0 8 -7 15 -15 15 -8 0 -15 -7 -15 -15 0 -13 -41 -15 -305 -15
-264 0 -305 2 -305 15 0 10 -10 15 -30 15 l-30 0 2 -232z"/>
<path d="M21813 22773 c-20 -7 -18 -419 1 -439 17 -16 36 -19 36 -4 0 6 108
10 305 10 197 0 305 -4 305 -10 0 -5 14 -10 30 -10 17 0 30 5 30 10 0 6 110
10 310 10 200 0 310 -4 310 -10 0 -5 7 -10 15 -10 8 0 15 5 15 10 0 6 108 10
305 10 197 0 305 -4 305 -10 0 -5 7 -10 15 -10 8 0 15 5 15 10 0 6 7 10 15 10
13 0 15 31 15 220 l0 220 -1007 -1 c-555 0 -1014 -3 -1020 -6z"/>
<path d="M41740 22550 l0 -225 1990 0 1990 0 0 225 0 225 -1990 0 -1990 0 0
-225z"/>
<path d="M46790 22550 l0 -225 1980 0 1980 0 0 225 0 225 -1980 0 -1980 0 0
-225z"/>
<path d="M37660 22305 c0 -8 -7 -15 -15 -15 -8 0 -15 -7 -15 -15 0 -8 -7 -15
-15 -15 -10 0 -15 -11 -15 -35 0 -24 -5 -35 -15 -35 -10 0 -15 -10 -15 -30 0
-20 5 -30 15 -30 10 0 15 -10 15 -30 0 -20 5 -30 15 -30 10 0 15 10 15 30 0
20 -5 30 -15 30 -10 0 -15 10 -15 30 0 20 5 30 15 30 10 0 15 11 15 35 0 24 5
35 15 35 8 0 15 7 15 15 0 12 16 15 80 15 64 0 80 -3 80 -15 0 -8 7 -15 15
-15 8 0 15 -9 15 -20 0 -11 7 -20 15 -20 12 0 15 -13 15 -60 0 -47 -3 -60 -15
-60 -10 0 -15 -10 -15 -30 0 -20 5 -30 15 -30 10 0 15 10 15 30 0 20 5 30 15
30 12 0 15 13 15 60 0 47 -3 60 -15 60 -10 0 -15 11 -15 35 0 24 -5 35 -15 35
-8 0 -15 7 -15 15 0 12 -17 15 -95 15 -78 0 -95 -3 -95 -15z"/>
<path d="M38210 22305 c0 -8 -7 -15 -15 -15 -8 0 -15 -7 -15 -15 0 -8 -7 -15
-15 -15 -10 0 -15 -11 -15 -35 0 -24 -5 -35 -15 -35 -10 0 -15 -10 -15 -30 0
-20 5 -30 15 -30 10 0 15 -10 15 -30 0 -20 5 -30 15 -30 10 0 15 10 15 30 0
20 -5 30 -15 30 -10 0 -15 10 -15 30 0 20 5 30 15 30 10 0 15 11 15 35 0 24 5
35 15 35 8 0 15 7 15 15 0 12 16 15 80 15 64 0 80 -3 80 -15 0 -8 7 -15 15
-15 8 0 15 -9 15 -20 0 -11 7 -20 15 -20 12 0 15 -13 15 -60 0 -47 -3 -60 -15
-60 -10 0 -15 -10 -15 -30 0 -20 5 -30 15 -30 10 0 15 10 15 30 0 20 5 30 15
30 12 0 15 13 15 60 0 47 -3 60 -15 60 -10 0 -15 11 -15 35 0 24 -5 35 -15 35
-8 0 -15 7 -15 15 0 12 -17 15 -95 15 -78 0 -95 -3 -95 -15z"/>
<path d="M21800 21484 c0 -173 3 -218 14 -230 17 -16 36 -19 36 -4 0 7 222 10
645 10 423 0 645 -3 645 -10 0 -5 7 -10 15 -10 8 0 15 5 15 10 0 6 108 10 305
10 197 0 305 -4 305 -10 0 -5 14 -10 30 -10 l30 0 -2 228 -3 227 -1017 3
-1018 2 0 -216z"/>
<path d="M9668 21673 c-16 -4 -18 -23 -18 -219 l0 -214 1670 0 1670 0 -2 218
-3 217 -1650 1 c-907 1 -1658 0 -1667 -3z"/>
<path d="M14062 21673 l-282 -3 2 -213 3 -212 3608 -3 3607 -2 0 213 0 214
-532 6 c-495 7 -5773 6 -6406 0z"/>
<path d="M41740 21460 l0 -220 1990 0 1990 0 0 214 0 213 -37 7 c-21 3 -917 6
-1990 6 l-1953 0 0 -220z"/>
<path d="M47468 21673 c-29 -4 -40 -33 -13 -33 13 0 15 -27 15 -185 0 -158 -2
-185 -15 -185 -8 0 -15 -7 -15 -15 0 -13 194 -15 1685 -15 l1685 0 0 214 c0
186 -2 215 -16 220 -17 7 -3282 6 -3326 -1z"/>
<path d="M39350 21505 c0 -8 7 -15 15 -15 13 0 15 -64 15 -520 l0 -520 -45 0
-45 0 0 215 c0 184 -2 215 -15 215 -13 0 -15 -31 -15 -215 0 -184 2 -215 15
-215 8 0 15 -7 15 -15 0 -11 12 -15 45 -15 l45 0 0 -50 c0 -38 4 -50 15 -50
13 0 15 73 15 600 l0 600 -30 0 c-20 0 -30 -5 -30 -15z"/>
<path d="M13767 20603 c-4 -3 -7 -109 -7 -235 l0 -228 30 0 c23 0 30 4 30 20
0 20 7 20 305 20 298 0 305 0 305 -20 0 -11 7 -20 15 -20 8 0 15 9 15 20 0 20
7 20 310 20 303 0 310 0 310 -20 0 -11 7 -20 15 -20 8 0 15 9 15 20 0 20 7 20
305 20 298 0 305 0 305 -20 0 -16 7 -20 30 -20 33 0 43 25 13 33 -10 3 129 5
310 6 321 1 327 1 327 -19 0 -11 7 -20 15 -20 8 0 15 9 15 20 0 20 7 20 305
20 298 0 305 0 305 -20 0 -11 7 -20 15 -20 8 0 15 9 15 20 0 20 7 20 305 20
298 0 305 0 305 -20 0 -16 7 -20 30 -20 33 0 43 25 13 33 -10 3 129 5 310 6
321 1 327 1 327 -19 0 -11 7 -20 15 -20 8 0 15 9 15 20 0 20 7 20 305 20 298
0 305 0 305 -20 0 -11 7 -20 15 -20 8 0 15 9 15 20 0 20 7 20 305 20 298 0
305 0 305 -20 0 -11 7 -20 15 -20 8 0 15 9 15 20 0 20 6 20 328 19 180 -1 319
-3 310 -6 -31 -8 -21 -33 12 -33 23 0 30 4 30 20 0 20 7 20 305 20 298 0 305
0 305 -20 0 -11 7 -20 15 -20 13 0 15 30 13 233 l-3 232 -3606 3 c-1983 1
-3609 -1 -3612 -5z"/>
<path d="M9650 20383 c0 -183 2 -213 15 -213 8 0 15 -6 15 -12 0 -10 338 -13
1655 -13 l1655 0 0 225 0 225 -1670 0 -1670 0 0 -212z"/>
<path d="M21800 20384 c0 -173 3 -218 14 -230 17 -16 36 -19 36 -4 0 6 108 10
305 10 197 0 305 -4 305 -10 0 -5 14 -10 30 -10 17 0 30 5 30 10 0 6 110 10
310 10 200 0 310 -4 310 -10 0 -5 7 -10 15 -10 8 0 15 5 15 10 0 6 108 10 305
10 197 0 305 -4 305 -10 0 -5 7 -10 15 -10 8 0 15 5 15 10 0 6 7 10 15 10 13
0 15 31 15 220 l0 220 -1020 0 -1020 0 0 -216z"/>
<path d="M28350 20570 c0 -20 -5 -30 -15 -30 -11 0 -15 -12 -15 -45 0 -33 -4
-45 -15 -45 -8 0 -15 -7 -15 -15 0 -8 7 -15 15 -15 8 0 15 -7 15 -15 0 -13
-58 -15 -460 -15 l-460 0 0 30 c0 20 -5 30 -15 30 -8 0 -15 7 -15 15 0 8 -7
15 -15 15 -8 0 -15 7 -15 15 0 12 -14 15 -65 15 -51 0 -65 -3 -65 -15 0 -10
-10 -15 -30 -15 l-30 0 0 -80 0 -80 45 0 45 0 0 80 c0 64 3 80 15 80 8 0 15
-7 15 -15 0 -8 7 -15 15 -15 13 0 15 -117 15 -995 0 -878 -2 -995 -15 -995 -8
0 -15 -9 -15 -20 0 -19 -7 -20 -215 -20 l-215 0 0 -225 0 -225 215 0 c208 0
215 -1 215 -20 0 -11 7 -20 15 -20 13 0 15 -102 15 -855 0 -753 -2 -855 -15
-855 -10 0 -15 -10 -15 -30 0 -28 3 -30 35 -30 24 0 35 5 35 15 0 10 10 15 30
15 l30 0 0 120 0 120 445 0 c389 0 445 -2 445 -15 0 -8 7 -15 15 -15 13 0 15
-20 15 -120 0 -100 3 -120 15 -120 8 0 15 -7 15 -15 0 -13 32 -15 230 -15 198
0 230 2 230 15 0 12 17 15 90 15 l90 0 0 -490 0 -490 -105 0 c-87 0 -105 3
-105 15 0 12 17 15 90 15 73 0 90 3 90 15 0 12 -15 15 -75 15 -60 0 -75 3 -75
15 0 8 -7 15 -15 15 -8 0 -15 -7 -15 -15 0 -8 -9 -15 -20 -15 -11 0 -20 -7
-20 -15 0 -8 -7 -15 -15 -15 -8 0 -15 -7 -15 -15 0 -12 -13 -15 -60 -15 -47 0
-60 -3 -60 -15 0 -13 116 -15 980 -15 l980 0 0 30 0 30 95 0 95 0 0 -80 c0
-64 -3 -80 -15 -80 -8 0 -15 7 -15 15 0 11 -12 15 -50 15 -38 0 -50 -4 -50
-15 0 -8 7 -15 15 -15 8 0 15 -7 15 -15 0 -8 -7 -15 -15 -15 -8 0 -15 -7 -15
-15 0 -10 11 -15 35 -15 24 0 35 5 35 15 0 10 10 15 30 15 20 0 30 5 30 15 0
8 7 15 15 15 12 0 15 17 15 95 l0 95 -95 0 c-78 0 -95 3 -95 15 0 8 -7 15 -15
15 -13 0 -15 54 -15 430 0 376 2 430 15 430 8 0 15 7 15 15 0 12 17 15 95 15
l95 0 0 75 0 75 -30 0 c-20 0 -30 5 -30 15 0 11 -12 15 -50 15 -38 0 -50 -4
-50 -15 0 -8 -7 -15 -15 -15 -8 0 -15 -7 -15 -15 0 -12 16 -15 80 -15 l80 0 0
-45 c0 -43 -1 -45 -30 -45 -20 0 -30 5 -30 15 0 8 -9 15 -20 15 -11 0 -20 -7
-20 -15 0 -11 -12 -15 -45 -15 l-45 0 0 45 c0 43 -1 45 -30 45 -20 0 -30 5
-30 15 0 10 -10 15 -30 15 -27 0 -30 -3 -30 -30 0 -20 5 -30 15 -30 8 0 15 -7
15 -15 0 -8 -7 -15 -15 -15 -8 0 -15 -7 -15 -15 0 -10 -10 -15 -30 -15 -20 0
-30 5 -30 15 0 12 -13 15 -60 15 -47 0 -60 -3 -60 -15 0 -12 -14 -15 -65 -15
-51 0 -65 3 -65 15 0 10 -10 15 -30 15 -20 0 -30 -5 -30 -15 0 -12 -15 -15
-75 -15 -60 0 -75 3 -75 15 0 10 -10 15 -30 15 -20 0 -30 -5 -30 -15 0 -12
-16 -15 -80 -15 -64 0 -80 3 -80 15 0 11 -12 15 -45 15 -33 0 -45 -4 -45 -15
0 -12 -13 -15 -60 -15 -47 0 -60 3 -60 15 0 11 -12 15 -45 15 -33 0 -45 -4
-45 -15 0 -12 -13 -15 -60 -15 -47 0 -60 3 -60 15 0 10 -11 15 -35 15 -24 0
-35 -5 -35 -15 0 -12 -15 -15 -75 -15 -60 0 -75 3 -75 15 0 10 -10 15 -30 15
-20 0 -30 -5 -30 -15 0 -12 -17 -15 -90 -15 l-90 0 0 45 c0 45 0 45 -35 45
-24 0 -35 -5 -35 -15 0 -8 9 -15 20 -15 11 0 20 -7 20 -15 0 -8 -9 -15 -20
-15 -11 0 -20 -7 -20 -15 0 -8 9 -15 20 -15 11 0 20 -7 20 -15 0 -13 -29 -15
-200 -15 l-200 0 0 30 c0 20 -5 30 -15 30 -12 0 -15 13 -15 60 0 47 3 60 15
60 12 0 15 13 15 60 0 47 -3 60 -15 60 -12 0 -15 17 -15 95 0 78 3 95 15 95 8
0 15 7 15 15 0 8 -7 15 -15 15 -12 0 -15 17 -15 90 0 73 3 90 15 90 8 0 15 7
15 15 0 8 -7 15 -15 15 -12 0 -15 14 -15 65 0 51 3 65 15 65 12 0 15 17 15 90
0 73 -3 90 -15 90 -11 0 -15 12 -15 45 0 33 4 45 15 45 10 0 15 10 15 30 0 20
-5 30 -15 30 -12 0 -15 16 -15 80 0 64 3 80 15 80 10 0 15 10 15 30 0 20 -5
30 -15 30 -12 0 -15 15 -15 75 0 60 3 75 15 75 12 0 15 13 15 60 0 47 -3 60
-15 60 -8 0 -15 7 -15 15 0 8 7 15 15 15 12 0 15 14 15 65 0 51 -3 65 -15 65
-12 0 -15 15 -15 75 0 60 3 75 15 75 10 0 15 10 15 30 0 20 -5 30 -15 30 -12
0 -15 15 -15 75 0 60 3 75 15 75 10 0 15 10 15 30 0 20 -5 30 -15 30 -11 0
-15 12 -15 50 0 38 4 50 15 50 12 0 15 17 15 90 0 73 -3 90 -15 90 -12 0 -15
13 -15 60 0 47 3 60 15 60 8 0 15 7 15 15 0 8 -7 15 -15 15 -12 0 -15 17 -15
95 0 78 3 95 15 95 8 0 15 7 15 15 0 8 -7 15 -15 15 -12 0 -15 17 -15 90 0 73
3 90 15 90 12 0 15 13 15 60 0 47 -3 60 -15 60 -8 0 -15 9 -15 20 0 11 7 20
15 20 12 0 15 13 15 60 0 47 -3 60 -15 60 -12 0 -15 15 -15 75 0 60 3 75 15
75 10 0 15 10 15 30 0 20 -5 30 -15 30 -12 0 -15 16 -15 80 0 64 3 80 15 80
13 0 15 36 15 260 0 224 2 260 15 260 8 0 15 -7 15 -15 0 -8 7 -15 15 -15 10
0 15 -11 15 -35 0 -32 2 -35 30 -35 l30 0 0 65 c0 51 -3 65 -15 65 -8 0 -15 7
-15 15 0 8 -7 15 -15 15 -8 0 -15 7 -15 15 0 11 -12 15 -45 15 -33 0 -45 4
-45 15 0 8 7 15 15 15 8 0 15 7 15 15 0 13 36 15 260 15 l260 0 0 -860 0 -860
-155 0 c-131 0 -155 2 -155 15 0 8 -7 15 -15 15 -10 0 -15 -10 -15 -30 l0 -30
185 0 185 0 0 890 0 890 -290 0 -290 0 0 -30z m-60 -230 c0 -11 7 -20 15 -20
12 0 15 -15 15 -75 l0 -75 -460 0 -460 0 0 95 0 95 445 0 c438 0 445 0 445
-20z m0 -215 c0 -8 7 -15 15 -15 12 0 15 -15 15 -75 l0 -75 -460 0 -460 0 0
90 0 90 445 0 c389 0 445 -2 445 -15z m30 -305 c0 -64 -3 -80 -15 -80 -8 0
-15 -7 -15 -15 0 -13 -56 -15 -445 -15 l-445 0 0 95 0 95 460 0 460 0 0 -80z
m0 -215 c0 -60 -3 -75 -15 -75 -8 0 -15 -7 -15 -15 0 -13 -56 -15 -445 -15
l-445 0 0 90 0 90 460 0 460 0 0 -75z m0 -215 c0 -64 -3 -80 -15 -80 -8 0 -15
-7 -15 -15 0 -13 -56 -15 -445 -15 l-445 0 0 95 0 95 460 0 460 0 0 -80z m0
-215 c0 -60 -3 -75 -15 -75 -8 0 -15 -7 -15 -15 0 -13 -56 -15 -445 -15 l-445
0 0 90 0 90 460 0 460 0 0 -75z m0 -215 c0 -64 -3 -80 -15 -80 -8 0 -15 -7
-15 -15 0 -13 -56 -15 -445 -15 l-445 0 0 95 0 95 460 0 460 0 0 -80z m-30
-155 c0 -8 7 -15 15 -15 12 0 15 -15 15 -75 l0 -75 -460 0 -460 0 0 90 0 90
445 0 c389 0 445 -2 445 -15z m0 -210 c0 -8 7 -15 15 -15 12 0 15 -16 15 -80
l0 -80 -460 0 -460 0 0 95 0 95 445 0 c389 0 445 -2 445 -15z m-990 -400 l0
-195 -210 0 -210 0 0 195 0 195 210 0 210 0 0 -195z m990 180 c0 -8 7 -15 15
-15 12 0 15 -15 15 -75 l0 -75 -460 0 -460 0 0 90 0 90 445 0 c389 0 445 -2
445 -15z m0 -210 c0 -8 7 -15 15 -15 12 0 15 -15 15 -75 l0 -75 -460 0 -460 0
0 90 0 90 445 0 c389 0 445 -2 445 -15z m0 -215 c0 -11 7 -20 15 -20 12 0 15
-15 15 -75 l0 -75 -460 0 -460 0 0 95 0 95 445 0 c438 0 445 0 445 -20z m-40
-215 c0 -10 11 -15 35 -15 l35 0 0 -75 c0 -60 -3 -75 -15 -75 -8 0 -15 -7 -15
-15 0 -13 -56 -15 -445 -15 l-445 0 0 90 c0 73 3 90 15 90 8 0 15 7 15 15 0
13 52 15 410 15 358 0 410 -2 410 -15z m70 -305 c0 -64 -3 -80 -15 -80 -8 0
-15 -7 -15 -15 0 -13 -56 -15 -445 -15 l-445 0 0 95 0 95 460 0 460 0 0 -80z
m0 -215 c0 -60 -3 -75 -15 -75 -8 0 -15 -7 -15 -15 0 -13 -56 -15 -445 -15
l-445 0 0 90 0 90 460 0 460 0 0 -75z m0 -215 c0 -64 -3 -80 -15 -80 -8 0 -15
-7 -15 -15 0 -13 -56 -15 -445 -15 l-445 0 0 95 0 95 460 0 460 0 0 -80z m0
-215 c0 -60 -3 -75 -15 -75 -8 0 -15 -7 -15 -15 0 -13 -56 -15 -445 -15 l-445
0 0 90 0 90 460 0 460 0 0 -75z m-30 -150 c0 -8 7 -15 15 -15 12 0 15 -14 15
-65 0 -51 -3 -65 -15 -65 -8 0 -15 -7 -15 -15 0 -13 -56 -15 -445 -15 l-445 0
0 95 0 95 445 0 c389 0 445 -2 445 -15z m910 -490 c0 -8 9 -15 20 -15 20 0 20
-7 20 -430 0 -423 0 -430 -20 -430 -17 0 -20 -7 -20 -45 l0 -45 -75 0 -75 0 0
490 0 490 75 0 c60 0 75 -3 75 -15z m220 0 c0 -8 7 -15 15 -15 13 0 15 -54 15
-430 0 -376 -2 -430 -15 -430 -11 0 -15 -12 -15 -45 l0 -45 -75 0 c-60 0 -75
3 -75 15 0 12 13 15 60 15 47 0 60 3 60 15 0 12 -13 15 -60 15 l-60 0 0 460 0
460 75 0 c60 0 75 -3 75 -15z m210 0 c0 -8 7 -15 15 -15 13 0 15 -54 15 -430
0 -376 -2 -430 -15 -430 -11 0 -15 -12 -15 -45 l0 -45 -75 0 c-60 0 -75 3 -75
15 0 10 10 15 30 15 20 0 30 5 30 15 0 10 -10 15 -30 15 l-30 0 0 460 0 460
75 0 c60 0 75 -3 75 -15z m220 0 c0 -8 7 -15 15 -15 13 0 15 -54 15 -430 0
-376 -2 -430 -15 -430 -10 0 -15 -10 -15 -30 0 -20 5 -30 15 -30 8 0 15 -7 15
-15 0 -12 -17 -15 -95 -15 -78 0 -95 3 -95 15 0 8 9 15 20 15 11 0 20 7 20 15
0 8 -9 15 -20 15 -20 0 -20 7 -20 460 l0 460 80 0 c64 0 80 -3 80 -15z m240
-445 c0 -402 -2 -460 -15 -460 -8 0 -15 -7 -15 -15 0 -8 7 -15 15 -15 8 0 15
-7 15 -15 0 -12 -17 -15 -90 -15 -73 0 -90 3 -90 15 0 8 7 15 15 15 8 0 15 7
15 15 0 8 -7 15 -15 15 -13 0 -15 58 -15 460 l0 460 90 0 90 0 0 -460z m220 0
c0 -402 -2 -460 -15 -460 -8 0 -15 -7 -15 -15 0 -8 7 -15 15 -15 8 0 15 -7 15
-15 0 -12 -17 -15 -95 -15 -78 0 -95 3 -95 15 0 12 14 15 65 15 51 0 65 3 65
15 0 11 -12 15 -50 15 -38 0 -50 4 -50 15 0 8 -7 15 -15 15 -13 0 -15 56 -15
445 l0 445 95 0 95 0 0 -460z m120 445 c0 -10 10 -15 30 -15 20 0 30 5 30 15
0 8 7 15 15 15 13 0 15 -58 15 -460 0 -402 -2 -460 -15 -460 -8 0 -15 7 -15
15 0 10 -10 15 -30 15 -27 0 -30 -3 -30 -30 0 -20 5 -30 15 -30 8 0 15 -7 15
-15 0 -12 -13 -15 -60 -15 -47 0 -60 3 -60 15 0 8 7 15 15 15 10 0 15 10 15
30 0 20 -5 30 -15 30 -13 0 -15 54 -15 430 0 376 2 430 15 430 8 0 15 7 15 15
0 10 10 15 30 15 20 0 30 -5 30 -15z"/>
<path d="M41740 20370 l0 -225 1990 0 1990 0 0 225 0 225 -1990 0 -1990 0 0
-225z"/>
<path d="M46790 20370 l0 -225 1980 0 1980 0 0 225 0 225 -1980 0 -1980 0 0
-225z"/>
<path d="M5550 20190 l0 -260 30 0 c20 0 30 -5 30 -15 0 -8 7 -15 15 -15 8 0
15 -7 15 -15 0 -8 7 -15 15 -15 8 0 15 -9 15 -20 0 -16 7 -20 30 -20 23 0 30
4 30 20 0 16 -7 20 -30 20 -20 0 -30 5 -30 15 0 8 -7 15 -15 15 -13 0 -15 37
-15 275 l0 275 -45 0 -45 0 0 -260z"/>
<path d="M55650 20190 l0 -260 45 0 45 0 0 260 0 260 -45 0 -45 0 0 -260z"/>
<path d="M39380 19725 c0 -33 4 -45 15 -45 10 0 15 10 15 30 l0 30 290 0 c251
0 290 2 290 15 0 13 -41 15 -305 15 l-305 0 0 -45z"/>
<path d="M33890 19100 c0 -562 2 -640 15 -640 13 0 15 78 15 640 0 562 -2 640
-15 640 -13 0 -15 -78 -15 -640z"/>
<path d="M21800 19300 c0 -121 3 -220 8 -220 4 0 463 -1 1020 -3 l1012 -2 -2
220 -3 220 -1017 3 -1018 2 0 -220z"/>
<path d="M9668 19503 c-16 -4 -18 -23 -18 -216 l0 -212 1670 0 1670 0 0 218 0
217 -1652 -1 c-909 -1 -1661 -3 -1670 -6z"/>
<path d="M13762 19280 l3 -215 3610 0 3610 0 3 215 2 215 -3615 0 -3615 0 2
-215z"/>
<path d="M41740 19285 l0 -215 1990 0 1990 0 0 215 0 215 -1990 0 -1990 0 0
-215z"/>
<path d="M46790 19285 l0 -215 1980 0 1980 0 0 215 0 215 -1980 0 -1980 0 0
-215z"/>
<path d="M5550 18500 l0 -290 -30 0 -30 0 0 -370 0 -370 380 0 c331 0 380 -2
380 -15 0 -8 7 -15 15 -15 13 0 15 -54 15 -425 l0 -425 30 0 30 0 0 475 0 475
-395 0 -395 0 0 290 0 290 30 0 c20 0 30 5 30 15 0 8 7 15 15 15 13 0 15 42
15 320 l0 320 -45 0 -45 0 0 -290z"/>
<path d="M55650 18455 l0 -335 45 0 45 0 0 -275 c0 -238 -2 -275 -15 -275 -8
0 -15 -7 -15 -15 0 -13 -49 -15 -380 -15 l-380 0 0 -475 0 -475 30 0 30 0 0
425 c0 371 2 425 15 425 8 0 15 7 15 15 0 13 49 15 380 15 l380 0 0 370 0 370
-30 0 -30 0 0 290 0 290 -45 0 -45 0 0 -335z"/>
<path d="M33950 18195 c0 -258 1 -265 20 -265 13 0 20 7 20 20 0 19 7 20 225
20 l225 0 0 225 0 225 -210 0 c-203 0 -210 1 -210 20 0 16 -7 20 -35 20 l-35
0 0 -265z m460 0 l0 -195 -210 0 -210 0 0 195 0 195 210 0 210 0 0 -195z"/>
<path d="M21800 18220 c0 -140 4 -220 10 -220 6 0 10 -7 10 -15 0 -8 7 -15 15
-15 8 0 15 7 15 15 0 13 41 15 305 15 264 0 305 -2 305 -15 0 -10 10 -15 30
-15 20 0 30 5 30 15 0 13 41 15 310 15 269 0 310 -2 310 -15 0 -8 7 -15 15
-15 8 0 15 7 15 15 0 13 41 15 305 15 264 0 305 -2 305 -15 0 -8 7 -15 15 -15
8 0 15 7 15 15 0 8 7 15 15 15 13 0 15 28 13 218 l-3 217 -1017 3 -1018 2 0
-220z"/>
<path d="M9668 18423 c-16 -4 -18 -23 -18 -214 0 -179 2 -209 15 -209 8 0 15
-7 15 -15 0 -8 7 -15 15 -15 8 0 15 7 15 15 0 13 41 15 310 15 269 0 310 -2
310 -15 0 -8 7 -15 15 -15 8 0 15 7 15 15 0 13 41 15 305 15 264 0 305 -2 305
-15 0 -10 10 -15 30 -15 20 0 30 5 30 15 0 13 41 15 310 15 269 0 310 -2 310
-15 0 -8 7 -15 15 -15 8 0 15 7 15 15 0 13 41 15 305 15 264 0 305 -2 305 -15
0 -8 7 -15 15 -15 8 0 15 7 15 15 0 13 41 15 305 15 264 0 305 -2 305 -15 0
-10 10 -15 30 -15 l30 0 -2 228 -3 227 -1650 1 c-907 1 -1658 0 -1667 -3z"/>
<path d="M13762 18193 l3 -228 3610 0 3610 0 3 228 c2 197 0 227 -13 227 -8 0
-15 -4 -15 -10 0 -6 -108 -10 -305 -10 -197 0 -305 4 -305 10 0 6 -13 10 -30
10 -16 0 -30 -4 -30 -10 0 -6 -110 -10 -310 -10 -200 0 -310 4 -310 10 0 6 -7
10 -15 10 -8 0 -15 -4 -15 -10 0 -6 -108 -10 -305 -10 -197 0 -305 4 -305 10
0 6 -7 10 -15 10 -8 0 -15 -4 -15 -10 0 -6 -108 -10 -305 -10 -197 0 -305 4
-305 10 0 6 -13 10 -30 10 -16 0 -30 -4 -30 -10 0 -6 -105 -10 -295 -10 -190
0 -295 4 -295 10 0 6 -13 10 -30 10 -16 0 -30 -4 -30 -10 0 -6 -108 -10 -305
-10 -197 0 -305 4 -305 10 0 6 -7 10 -15 10 -8 0 -15 -4 -15 -10 0 -6 -108
-10 -305 -10 -197 0 -305 4 -305 10 0 6 -7 10 -15 10 -8 0 -15 -4 -15 -10 0
-6 -110 -10 -310 -10 -200 0 -310 4 -310 10 0 6 -13 10 -30 10 -16 0 -30 -4
-30 -10 0 -6 -108 -10 -305 -10 -197 0 -305 4 -305 10 0 6 -7 10 -15 10 -8 0
-15 -4 -15 -10 0 -6 -110 -10 -310 -10 -200 0 -310 4 -310 10 0 6 -7 10 -15
10 -8 0 -15 -4 -15 -10 0 -6 -108 -10 -305 -10 -197 0 -305 4 -305 10 0 6 -14
10 -30 10 l-30 0 2 -227z"/>
<path d="M41740 18198 l0 -223 1990 0 1990 0 0 223 0 222 -1990 0 -1990 0 0
-222z"/>
<path d="M46790 18198 l0 -223 1980 0 1980 0 0 223 0 222 -1980 0 -1980 0 0
-222z"/>
<path d="M52310 17765 c0 -10 -10 -15 -30 -15 -20 0 -30 -5 -30 -15 0 -10 10
-15 30 -15 20 0 30 -5 30 -15 0 -13 42 -15 320 -15 278 0 320 -2 320 -15 0 -8
9 -15 20 -15 16 0 20 7 20 30 l0 30 -325 0 -325 0 0 30 c0 20 -5 30 -15 30 -8
0 -15 -7 -15 -15z"/>
<path d="M33890 17200 c0 -402 2 -460 15 -460 13 0 15 58 15 460 0 402 -2 460
-15 460 -13 0 -15 -58 -15 -460z"/>
<path d="M21800 17140 c0 -140 4 -220 10 -220 6 0 10 -7 10 -15 0 -8 7 -15 15
-15 8 0 15 9 15 20 0 20 7 20 645 20 638 0 645 0 645 -20 0 -11 7 -20 15 -20
8 0 15 9 15 20 0 20 7 20 305 20 298 0 305 0 305 -20 0 -16 7 -20 30 -20 l30
0 -2 233 -3 232 -1017 3 -1018 2 0 -220z"/>
<path d="M13760 17115 l0 -225 30 0 c17 0 30 5 30 10 0 6 108 10 305 10 197 0
305 -4 305 -10 0 -5 7 -10 15 -10 8 0 15 5 15 10 0 6 110 10 310 10 200 0 310
-4 310 -10 0 -5 7 -10 15 -10 8 0 15 5 15 10 0 6 108 10 305 10 197 0 305 -4
305 -10 0 -5 7 -10 15 -10 8 0 15 5 15 10 0 6 115 10 325 10 210 0 325 -4 325
-10 0 -5 7 -10 15 -10 8 0 15 5 15 10 0 6 108 10 305 10 197 0 305 -4 305 -10
0 -5 7 -10 15 -10 8 0 15 5 15 10 0 6 108 10 305 10 197 0 305 -4 305 -10 0
-5 7 -10 15 -10 8 0 15 5 15 10 0 6 115 10 325 10 210 0 325 -4 325 -10 0 -5
7 -10 15 -10 8 0 15 5 15 10 0 6 108 10 305 10 197 0 305 -4 305 -10 0 -5 7
-10 15 -10 8 0 15 5 15 10 0 6 108 10 305 10 197 0 305 -4 305 -10 0 -5 7 -10
15 -10 8 0 15 5 15 10 0 7 222 10 645 10 423 0 645 -3 645 -10 0 -5 7 -10 15
-10 13 0 15 30 15 209 0 115 -3 216 -6 225 -6 15 -333 16 -3615 16 l-3609 0 0
-225z"/>
<path d="M9668 17323 c-16 -4 -18 -23 -18 -216 l0 -212 1670 0 1670 0 0 218 0
217 -1652 -1 c-909 -1 -1661 -3 -1670 -6z"/>
<path d="M41740 17100 l0 -220 1953 0 c1073 0 1969 3 1990 6 l37 7 0 213 0
214 -1990 0 -1990 0 0 -220z"/>
<path d="M46790 17100 l0 -220 1949 0 c1072 0 1963 3 1980 6 l31 7 0 213 0
214 -1980 0 -1980 0 0 -220z"/>
<path d="M35920 17065 c0 -8 7 -15 15 -15 8 0 15 -7 15 -15 0 -8 7 -15 15 -15
8 0 15 7 15 15 0 13 46 15 350 15 304 0 350 2 350 15 0 13 -49 15 -380 15
-331 0 -380 -2 -380 -15z"/>
<path d="M21800 16040 c0 -140 4 -220 10 -220 6 0 10 -7 10 -15 0 -8 7 -15 15
-15 8 0 15 7 15 15 0 13 41 15 305 15 264 0 305 -2 305 -15 0 -10 10 -15 30
-15 20 0 30 5 30 15 0 13 41 15 310 15 269 0 310 -2 310 -15 0 -8 7 -15 15
-15 8 0 15 7 15 15 0 13 41 15 305 15 264 0 305 -2 305 -15 0 -8 7 -15 15 -15
8 0 15 7 15 15 0 8 7 15 15 15 13 0 15 28 13 218 l-3 217 -1017 3 -1018 2 0
-220z"/>
<path d="M9650 16035 c0 -184 2 -215 15 -215 8 0 15 -7 15 -15 0 -8 7 -15 15
-15 8 0 15 7 15 15 0 13 41 15 310 15 269 0 310 -2 310 -15 0 -8 7 -15 15 -15
8 0 15 7 15 15 0 13 41 15 305 15 264 0 305 -2 305 -15 0 -10 10 -15 30 -15
20 0 30 5 30 15 0 13 41 15 310 15 269 0 310 -2 310 -15 0 -8 7 -15 15 -15 8
0 15 7 15 15 0 13 41 15 305 15 264 0 305 -2 305 -15 0 -8 7 -15 15 -15 8 0
15 7 15 15 0 13 41 15 305 15 264 0 305 -2 305 -15 0 -10 10 -15 30 -15 l30 0
0 230 0 230 -1670 0 -1670 0 0 -215z"/>
<path d="M13760 16020 l0 -225 3615 0 3615 0 0 225 0 225 -3615 0 -3615 0 0
-225z"/>
<path d="M41740 16020 c0 -198 2 -230 15 -230 8 0 15 5 15 10 0 6 108 10 305
10 197 0 305 -4 305 -10 0 -5 14 -10 30 -10 17 0 30 5 30 10 0 6 110 10 310
10 200 0 310 -4 310 -10 0 -5 7 -10 15 -10 8 0 15 5 15 10 0 6 108 10 305 10
197 0 305 -4 305 -10 0 -5 7 -10 15 -10 8 0 15 5 15 10 0 6 108 10 305 10 197
0 305 -4 305 -10 0 -5 14 -10 30 -10 17 0 30 5 30 10 0 6 110 10 310 10 200 0
310 -4 310 -10 0 -5 7 -10 15 -10 8 0 15 5 15 10 0 6 108 10 305 10 197 0 305
-4 305 -10 0 -5 14 -10 30 -10 l30 0 0 230 0 230 -1990 0 -1990 0 0 -230z"/>
<path d="M46790 16020 c0 -223 1 -230 20 -230 11 0 20 5 20 10 0 6 108 10 305
10 197 0 305 -4 305 -10 0 -5 14 -10 30 -10 17 0 30 5 30 10 0 6 108 10 305
10 197 0 305 -4 305 -10 0 -5 7 -10 15 -10 8 0 15 5 15 10 0 6 110 10 310 10
200 0 310 -4 310 -10 0 -5 7 -10 15 -10 8 0 15 5 15 10 0 6 108 10 305 10 197
0 305 -4 305 -10 0 -5 7 -10 15 -10 8 0 15 5 15 10 0 6 108 10 305 10 197 0
305 -4 305 -10 0 -5 14 -10 30 -10 17 0 30 5 30 10 0 6 110 10 310 10 200 0
310 -4 310 -10 0 -5 7 -10 15 -10 13 0 15 32 15 230 l0 230 -1980 0 -1980 0 0
-230z"/>
<path d="M6310 15165 c0 -8 -7 -15 -15 -15 -13 0 -15 -48 -15 -370 l0 -370 30
0 30 0 0 385 c0 336 -2 385 -15 385 -8 0 -15 -7 -15 -15z"/>
<path d="M21800 14964 c0 -173 3 -218 14 -230 18 -17 33 -18 38 -1 4 9 141 12
643 12 502 0 639 -3 642 -12 6 -18 33 -16 33 2 0 13 41 15 305 15 264 0 305
-2 305 -15 0 -10 10 -15 30 -15 l30 0 0 230 0 230 -1020 0 -1020 0 0 -216z"/>
<path d="M26840 14885 l0 -295 250 0 250 0 0 295 0 295 -250 0 -250 0 0 -295z
m460 0 l0 -265 -210 0 -210 0 0 265 0 265 210 0 210 0 0 -265z"/>
<path d="M33950 14870 l0 -310 245 0 245 0 0 310 0 310 -245 0 -245 0 0 -310z
m460 15 c0 -229 -2 -265 -15 -265 -8 0 -15 -7 -15 -15 0 -13 -28 -15 -195 -15
l-195 0 0 280 0 280 210 0 210 0 0 -265z"/>
<path d="M54980 15165 c0 -8 -7 -15 -15 -15 -13 0 -15 -48 -15 -370 l0 -370
30 0 30 0 0 385 c0 336 -2 385 -15 385 -8 0 -15 -7 -15 -15z"/>
<path d="M9680 15160 c0 -5 -7 -10 -15 -10 -13 0 -15 -30 -15 -212 l0 -213
1670 0 1670 0 -2 220 -3 220 -1652 3 c-1100 1 -1653 -1 -1653 -8z"/>
<path d="M14342 14925 l3 -220 2948 -3 c1963 -1 2947 1 2947 8 0 5 11 10 25
10 l25 0 0 213 0 212 -2975 0 -2975 0 2 -220z"/>
<path d="M41740 14925 l0 -225 1965 0 c1303 0 1965 3 1965 10 0 6 11 10 25 10
l25 0 0 215 0 215 -30 0 c-16 0 -30 -4 -30 -10 0 -6 -108 -10 -305 -10 -197 0
-305 4 -305 10 0 6 -7 10 -15 10 -8 0 -15 -4 -15 -10 0 -7 -222 -10 -645 -10
-423 0 -645 3 -645 10 0 6 -7 10 -15 10 -8 0 -15 -4 -15 -10 0 -6 -108 -10
-305 -10 -197 0 -305 4 -305 10 0 6 -7 10 -15 10 -8 0 -15 -4 -15 -10 0 -7
-222 -10 -645 -10 -423 0 -645 3 -645 10 0 6 -7 10 -15 10 -13 0 -15 -32 -15
-225z"/>
<path d="M47440 15135 c0 -8 5 -15 10 -15 6 0 10 -77 10 -210 l0 -210 1675 0
1675 0 0 225 0 225 -30 0 c-16 0 -30 -4 -30 -10 0 -6 -108 -10 -305 -10 -197
0 -305 4 -305 10 0 6 -9 10 -20 10 -11 0 -20 -4 -20 -10 0 -7 -220 -10 -640
-10 -420 0 -640 3 -640 10 0 6 -7 10 -15 10 -8 0 -15 -4 -15 -10 0 -6 -110
-10 -310 -10 -200 0 -310 4 -310 10 0 6 -7 10 -15 10 -8 0 -15 -4 -15 -10 0
-6 -108 -10 -305 -10 -197 0 -305 4 -305 10 0 6 -20 10 -45 10 -33 0 -45 -4
-45 -15z"/>
<path d="M9673 13713 c-23 -4 -23 -4 -23 -219 0 -184 2 -214 15 -214 8 0 15
-7 15 -15 0 -8 7 -15 15 -15 8 0 15 7 15 15 0 13 114 15 970 15 856 0 970 -2
970 -15 0 -8 7 -15 15 -15 8 0 15 7 15 15 0 13 41 15 305 15 264 0 305 -2 305
-15 0 -8 7 -15 15 -15 8 0 15 7 15 15 0 13 41 15 305 15 264 0 305 -2 305 -15
0 -10 10 -15 30 -15 l30 0 -2 233 -3 232 -1645 1 c-905 1 -1655 -1 -1667 -3z"/>
<path d="M13767 13713 c-4 -3 -7 -109 -7 -235 l0 -228 30 0 c20 0 30 5 30 15
0 13 403 15 3570 15 3167 0 3570 -2 3570 -15 0 -8 7 -15 15 -15 13 0 15 30 13
233 l-3 232 -3606 3 c-1983 1 -3609 -1 -3612 -5z"/>
<path d="M21624 13707 c-2 -7 -3 -105 -2 -217 3 -204 3 -205 26 -208 12 -2 22
-10 22 -18 0 -8 7 -14 15 -14 8 0 15 7 15 15 0 13 78 15 640 15 562 0 640 -2
640 -15 0 -8 7 -15 15 -15 8 0 15 7 15 15 0 13 223 15 1950 15 1727 0 1950 -2
1950 -15 0 -8 7 -15 15 -15 13 0 15 33 15 235 l0 235 -2655 0 c-2145 0 -2657
-2 -2661 -13z"/>
<path d="M34297 13713 c-4 -3 -7 -102 -7 -220 0 -183 2 -213 15 -213 8 0 15
-7 15 -15 0 -8 7 -15 15 -15 8 0 15 7 15 15 0 13 368 15 3250 15 2882 0 3250
-2 3250 -15 0 -8 7 -15 15 -15 8 0 15 7 15 15 0 8 7 15 15 15 13 0 15 30 15
214 0 213 0 214 -22 220 -31 8 -6583 8 -6591 -1z"/>
<path d="M41747 13713 c-4 -3 -7 -109 -7 -235 0 -196 2 -228 15 -228 8 0 15 7
15 15 0 13 223 15 1945 15 1722 0 1945 -2 1945 -15 0 -8 7 -15 15 -15 8 0 15
7 15 15 0 8 7 15 15 15 13 0 15 30 15 214 l0 213 -46 7 c-62 8 -3919 8 -3927
-1z"/>
<path d="M46713 13713 c-10 -3 -13 -60 -13 -234 l0 -229 30 0 c20 0 30 5 30
15 0 13 41 15 310 15 269 0 310 -2 310 -15 0 -8 7 -15 15 -15 8 0 15 7 15 15
0 13 41 15 305 15 264 0 305 -2 305 -15 0 -8 7 -15 15 -15 8 0 15 7 15 15 0
13 78 15 645 15 567 0 645 -2 645 -15 0 -8 7 -15 15 -15 8 0 15 7 15 15 0 13
41 15 305 15 264 0 305 -2 305 -15 0 -8 7 -15 15 -15 8 0 15 7 15 15 0 13 41
15 310 15 269 0 310 -2 310 -15 0 -10 10 -15 30 -15 l30 0 0 235 0 235 -1982
-1 c-1091 0 -1989 -3 -1995 -6z"/>
<path d="M6280 12615 l0 -385 30 0 30 0 0 385 0 385 -30 0 -30 0 0 -385z"/>
<path d="M54950 12615 l0 -385 30 0 30 0 0 385 0 385 -30 0 -30 0 0 -385z"/>
<path d="M9680 12620 c0 -11 -7 -20 -15 -20 -13 0 -15 -31 -15 -215 l0 -215
30 0 c23 0 30 4 30 20 0 20 7 20 310 20 303 0 310 0 310 -20 0 -11 7 -20 15
-20 8 0 15 9 15 20 0 20 7 20 645 20 638 0 645 0 645 -20 0 -11 7 -20 15 -20
8 0 15 9 15 20 0 20 7 20 305 20 298 0 305 0 305 -20 0 -11 7 -20 15 -20 8 0
15 9 15 20 0 20 7 20 305 20 298 0 305 0 305 -20 0 -16 7 -20 30 -20 l30 0 -2
233 -3 232 -1652 3 c-1648 2 -1653 2 -1653 -18z"/>
<path d="M13760 12400 l0 -230 30 0 c17 0 30 5 30 10 0 6 108 10 305 10 197 0
305 -4 305 -10 0 -5 7 -10 15 -10 8 0 15 5 15 10 0 6 110 10 310 10 200 0 310
-4 310 -10 0 -5 7 -10 15 -10 8 0 15 5 15 10 0 7 222 10 645 10 423 0 645 -3
645 -10 0 -5 7 -10 15 -10 8 0 15 5 15 10 0 6 108 10 305 10 197 0 305 -4 305
-10 0 -5 7 -10 15 -10 8 0 15 5 15 10 0 6 108 10 305 10 197 0 305 -4 305 -10
0 -5 7 -10 15 -10 8 0 15 5 15 10 0 6 115 10 325 10 210 0 325 -4 325 -10 0
-5 7 -10 15 -10 8 0 15 5 15 10 0 6 108 10 305 10 197 0 305 -4 305 -10 0 -5
7 -10 15 -10 8 0 15 5 15 10 0 6 108 10 305 10 197 0 305 -4 305 -10 0 -5 7
-10 15 -10 8 0 15 5 15 10 0 6 115 10 325 10 210 0 325 -4 325 -10 0 -5 7 -10
15 -10 8 0 15 5 15 10 0 6 108 10 305 10 197 0 305 -4 305 -10 0 -5 7 -10 15
-10 13 0 15 32 15 230 l0 230 -3615 0 -3615 0 0 -230z"/>
<path d="M21647 12623 l-27 -4 2 -212 c3 -211 3 -212 26 -215 12 -2 22 -8 22
-13 0 -5 7 -9 15 -9 8 0 15 5 15 10 0 7 220 10 640 10 420 0 640 -3 640 -10 0
-5 7 -10 15 -10 8 0 15 5 15 10 0 6 110 10 310 10 200 0 310 -4 310 -10 0 -5
7 -10 15 -10 8 0 15 5 15 10 0 6 108 10 305 10 197 0 305 -4 305 -10 0 -5 7
-10 15 -10 8 0 15 5 15 10 0 6 113 10 320 10 207 0 320 -4 320 -10 0 -5 9 -10
20 -10 11 0 20 5 20 10 0 6 108 10 305 10 197 0 305 -4 305 -10 0 -5 7 -10 15
-10 8 0 15 5 15 10 0 6 108 10 305 10 197 0 305 -4 305 -10 0 -5 7 -10 15 -10
8 0 15 5 15 10 0 6 115 10 325 10 210 0 325 -4 325 -10 0 -5 7 -10 15 -10 13
0 15 32 15 230 l0 230 -2632 -1 c-1448 -1 -2645 -4 -2661 -6z"/>
<path d="M34308 12623 c-16 -4 -18 -23 -18 -219 0 -184 2 -214 15 -214 8 0 15
-4 15 -10 0 -5 7 -10 15 -10 8 0 15 5 15 10 0 6 110 10 310 10 200 0 310 -4
310 -10 0 -5 7 -10 15 -10 8 0 15 5 15 10 0 6 113 10 320 10 207 0 320 -4 320
-10 0 -5 7 -10 15 -10 8 0 15 5 15 10 0 6 108 10 305 10 197 0 305 -4 305 -10
0 -5 7 -10 15 -10 8 0 15 5 15 10 0 6 110 10 310 10 200 0 310 -4 310 -10 0
-5 7 -10 15 -10 8 0 15 5 15 10 0 6 113 10 320 10 207 0 320 -4 320 -10 0 -5
7 -10 15 -10 8 0 15 5 15 10 0 6 108 10 305 10 197 0 305 -4 305 -10 0 -5 9
-10 20 -10 11 0 20 5 20 10 0 6 108 10 305 10 197 0 305 -4 305 -10 0 -5 7
-10 15 -10 8 0 15 5 15 10 0 7 222 10 645 10 423 0 645 -3 645 -10 0 -5 7 -10
15 -10 8 0 15 5 15 10 0 6 108 10 305 10 197 0 305 -4 305 -10 0 -5 14 -10 30
-10 l30 0 0 210 c0 184 -2 212 -17 230 -17 20 -23 20 -3293 19 -1801 -1 -3283
-3 -3292 -6z"/>
<path d="M41740 12400 c0 -198 2 -230 15 -230 8 0 15 5 15 10 0 6 113 10 320
10 207 0 320 -4 320 -10 0 -5 7 -10 15 -10 8 0 15 5 15 10 0 6 110 10 310 10
200 0 310 -4 310 -10 0 -5 7 -10 15 -10 8 0 15 5 15 10 0 6 108 10 305 10 197
0 305 -4 305 -10 0 -5 7 -10 15 -10 8 0 15 5 15 10 0 7 222 10 645 10 423 0
645 -3 645 -10 0 -5 7 -10 15 -10 8 0 15 5 15 10 0 6 108 10 305 10 197 0 305
-4 305 -10 0 -5 14 -10 30 -10 l30 0 0 215 c0 184 -2 215 -15 215 -8 0 -15 7
-15 15 0 13 -226 15 -1975 15 l-1975 0 0 -230z"/>
<path d="M46720 12615 c0 -8 -4 -15 -10 -15 -6 0 -10 -78 -10 -215 l0 -215 30
0 c17 0 30 5 30 10 0 6 110 10 310 10 200 0 310 -4 310 -10 0 -5 7 -10 15 -10
8 0 15 5 15 10 0 6 108 10 305 10 197 0 305 -4 305 -10 0 -5 7 -10 15 -10 8 0
15 5 15 10 0 6 113 10 320 10 207 0 320 -4 320 -10 0 -5 9 -10 20 -10 11 0 20
5 20 10 0 6 108 10 305 10 197 0 305 -4 305 -10 0 -5 7 -10 15 -10 8 0 15 5
15 10 0 6 108 10 305 10 197 0 305 -4 305 -10 0 -5 7 -10 15 -10 8 0 15 5 15
10 0 6 110 10 310 10 200 0 310 -4 310 -10 0 -5 14 -10 30 -10 l30 0 0 230 0
230 -1985 0 c-1758 0 -1985 -2 -1985 -15z"/>
<path d="M9657 11533 c-4 -3 -7 -102 -7 -220 0 -183 2 -213 15 -213 8 0 15 -7
15 -15 0 -8 7 -15 15 -15 8 0 15 7 15 15 0 13 114 15 970 15 856 0 970 -2 970
-15 0 -8 7 -15 15 -15 8 0 15 7 15 15 0 13 41 15 305 15 264 0 305 -2 305 -15
0 -8 7 -15 15 -15 8 0 15 7 15 15 0 13 41 15 305 15 264 0 305 -2 305 -15 0
-10 10 -15 30 -15 l30 0 0 229 0 229 -31 6 c-42 8 -3294 8 -3302 -1z"/>
<path d="M13760 11300 l0 -230 30 0 c20 0 30 5 30 15 0 13 403 15 3570 15
3167 0 3570 -2 3570 -15 0 -8 7 -15 15 -15 13 0 15 32 15 230 l0 230 -3615 0
-3615 0 0 -230z"/>
<path d="M21620 11315 l0 -215 25 0 c16 0 25 -6 25 -15 0 -8 7 -15 15 -15 8 0
15 7 15 15 0 13 78 15 640 15 562 0 640 -2 640 -15 0 -8 7 -15 15 -15 8 0 15
7 15 15 0 13 223 15 1950 15 1727 0 1950 -2 1950 -15 0 -8 7 -15 15 -15 13 0
15 32 15 230 l0 230 -2660 0 -2660 0 0 -215z"/>
<path d="M34290 11315 c0 -184 2 -215 15 -215 8 0 15 -7 15 -15 0 -8 7 -15 15
-15 8 0 15 7 15 15 0 13 368 15 3250 15 2882 0 3250 -2 3250 -15 0 -8 7 -15
15 -15 8 0 15 7 15 15 0 8 7 15 15 15 13 0 15 31 15 215 l0 215 -3310 0 -3310
0 0 -215z"/>
<path d="M41740 11300 c0 -198 2 -230 15 -230 8 0 15 7 15 15 0 13 223 15
1945 15 1722 0 1945 -2 1945 -15 0 -8 7 -15 15 -15 8 0 15 7 15 15 0 8 7 15
15 15 13 0 15 31 15 215 l0 215 -1990 0 -1990 0 0 -230z"/>
<path d="M46700 11300 l0 -230 30 0 c20 0 30 5 30 15 0 13 41 15 310 15 269 0
310 -2 310 -15 0 -8 7 -15 15 -15 8 0 15 7 15 15 0 13 41 15 305 15 264 0 305
-2 305 -15 0 -8 7 -15 15 -15 8 0 15 7 15 15 0 13 78 15 645 15 567 0 645 -2
645 -15 0 -8 7 -15 15 -15 8 0 15 7 15 15 0 13 41 15 305 15 264 0 305 -2 305
-15 0 -8 7 -15 15 -15 8 0 15 7 15 15 0 13 41 15 310 15 269 0 310 -2 310 -15
0 -10 10 -15 30 -15 l30 0 0 230 0 230 -1995 0 -1995 0 0 -230z"/>
<path d="M6280 10440 l0 -380 30 0 30 0 0 380 0 380 -30 0 -30 0 0 -380z"/>
<path d="M54950 10440 l0 -380 30 0 30 0 0 380 0 380 -30 0 -30 0 0 -380z"/>
<path d="M9657 10453 c-4 -3 -7 -107 -7 -230 l0 -223 30 0 c17 0 30 5 30 10 0
6 110 10 310 10 200 0 310 -4 310 -10 0 -5 7 -10 15 -10 8 0 15 5 15 10 0 6
113 10 320 10 207 0 320 -4 320 -10 0 -5 7 -10 15 -10 8 0 15 5 15 10 0 6 110
10 310 10 200 0 310 -4 310 -10 0 -5 7 -10 15 -10 8 0 15 5 15 10 0 6 108 10
305 10 197 0 305 -4 305 -10 0 -5 7 -10 15 -10 8 0 15 5 15 10 0 6 108 10 305
10 197 0 305 -4 305 -10 0 -5 14 -10 30 -10 l30 0 0 230 0 230 -1663 0 c-915
0 -1667 -3 -1670 -7z"/>
<path d="M13760 10230 l0 -230 30 0 c20 0 30 5 30 15 0 13 41 15 305 15 264 0
305 -2 305 -15 0 -8 7 -15 15 -15 8 0 15 7 15 15 0 13 41 15 310 15 269 0 310
-2 310 -15 0 -8 7 -15 15 -15 8 0 15 7 15 15 0 13 41 15 305 15 264 0 305 -2
305 -15 0 -10 10 -15 30 -15 20 0 30 5 30 15 0 13 41 15 310 15 269 0 310 -2
310 -15 0 -8 7 -15 15 -15 8 0 15 7 15 15 0 13 41 15 305 15 264 0 305 -2 305
-15 0 -8 7 -15 15 -15 8 0 15 7 15 15 0 13 41 15 305 15 264 0 305 -2 305 -15
0 -8 7 -15 15 -15 8 0 15 7 15 15 0 13 43 15 325 15 282 0 325 -2 325 -15 0
-8 7 -15 15 -15 8 0 15 7 15 15 0 13 41 15 305 15 264 0 305 -2 305 -15 0 -8
7 -15 15 -15 8 0 15 7 15 15 0 13 41 15 305 15 264 0 305 -2 305 -15 0 -8 7
-15 15 -15 8 0 15 7 15 15 0 13 43 15 325 15 282 0 325 -2 325 -15 0 -8 7 -15
15 -15 8 0 15 7 15 15 0 13 41 15 305 15 264 0 305 -2 305 -15 0 -8 7 -15 15
-15 13 0 15 32 15 230 l0 230 -3615 0 -3615 0 0 -230z"/>
<path d="M21622 10248 c3 -212 3 -213 26 -216 12 -2 22 -10 22 -18 0 -8 7 -14
15 -14 8 0 15 7 15 15 0 13 78 15 640 15 562 0 640 -2 640 -15 0 -8 7 -15 15
-15 8 0 15 7 15 15 0 13 41 15 310 15 269 0 310 -2 310 -15 0 -8 7 -15 15 -15
8 0 15 7 15 15 0 13 41 15 305 15 264 0 305 -2 305 -15 0 -8 7 -15 15 -15 8 0
15 7 15 15 0 13 42 15 320 15 278 0 320 -2 320 -15 0 -8 9 -15 20 -15 11 0 20
7 20 15 0 13 41 15 305 15 264 0 305 -2 305 -15 0 -8 7 -15 15 -15 8 0 15 7
15 15 0 13 41 15 305 15 264 0 305 -2 305 -15 0 -8 7 -15 15 -15 8 0 15 7 15
15 0 13 43 15 325 15 282 0 325 -2 325 -15 0 -8 7 -15 15 -15 13 0 15 32 15
230 l0 230 -2660 0 -2660 0 2 -212z"/>
<path d="M34290 10245 c0 -184 2 -215 15 -215 8 0 15 -7 15 -15 0 -8 7 -15 15
-15 8 0 15 7 15 15 0 13 41 15 310 15 269 0 310 -2 310 -15 0 -8 7 -15 15 -15
8 0 15 7 15 15 0 13 42 15 320 15 278 0 320 -2 320 -15 0 -8 7 -15 15 -15 8 0
15 7 15 15 0 13 41 15 305 15 264 0 305 -2 305 -15 0 -8 7 -15 15 -15 8 0 15
7 15 15 0 13 41 15 310 15 269 0 310 -2 310 -15 0 -8 7 -15 15 -15 8 0 15 7
15 15 0 13 42 15 320 15 278 0 320 -2 320 -15 0 -8 7 -15 15 -15 8 0 15 7 15
15 0 13 41 15 305 15 264 0 305 -2 305 -15 0 -8 9 -15 20 -15 11 0 20 7 20 15
0 13 41 15 305 15 264 0 305 -2 305 -15 0 -8 7 -15 15 -15 8 0 15 7 15 15 0
13 41 15 305 15 264 0 305 -2 305 -15 0 -8 7 -15 15 -15 8 0 15 7 15 15 0 13
43 15 325 15 282 0 325 -2 325 -15 0 -8 7 -15 15 -15 8 0 15 7 15 15 0 13 41
15 305 15 264 0 305 -2 305 -15 0 -10 10 -15 30 -15 l30 0 0 215 c0 137 -4
215 -10 215 -5 0 -10 7 -10 15 0 13 -373 15 -3300 15 l-3300 0 0 -215z"/>
<path d="M41740 10230 c0 -198 2 -230 15 -230 8 0 15 7 15 15 0 13 42 15 320
15 278 0 320 -2 320 -15 0 -8 7 -15 15 -15 8 0 15 7 15 15 0 13 41 15 310 15
269 0 310 -2 310 -15 0 -8 7 -15 15 -15 8 0 15 7 15 15 0 13 41 15 305 15 264
0 305 -2 305 -15 0 -8 7 -15 15 -15 8 0 15 7 15 15 0 13 41 15 305 15 264 0
305 -2 305 -15 0 -8 7 -15 15 -15 8 0 15 7 15 15 0 13 43 15 325 15 282 0 325
-2 325 -15 0 -8 7 -15 15 -15 8 0 15 7 15 15 0 13 41 15 305 15 264 0 305 -2
305 -15 0 -10 10 -15 30 -15 l30 0 0 215 c0 184 -2 215 -15 215 -8 0 -15 7
-15 15 0 13 -226 15 -1975 15 l-1975 0 0 -230z"/>
<path d="M46720 10445 c0 -8 -4 -15 -10 -15 -6 0 -10 -78 -10 -215 l0 -215 30
0 c20 0 30 5 30 15 0 13 41 15 310 15 269 0 310 -2 310 -15 0 -8 7 -15 15 -15
8 0 15 7 15 15 0 13 41 15 305 15 264 0 305 -2 305 -15 0 -8 7 -15 15 -15 8 0
15 7 15 15 0 13 42 15 320 15 278 0 320 -2 320 -15 0 -8 9 -15 20 -15 11 0 20
7 20 15 0 13 41 15 305 15 264 0 305 -2 305 -15 0 -8 7 -15 15 -15 8 0 15 7
15 15 0 13 41 15 305 15 264 0 305 -2 305 -15 0 -8 7 -15 15 -15 8 0 15 7 15
15 0 13 41 15 310 15 269 0 310 -2 310 -15 0 -10 10 -15 30 -15 l30 0 0 230 0
230 -1985 0 c-1758 0 -1985 -2 -1985 -15z"/>
<path d="M52310 10045 l0 -45 320 0 c278 0 320 -2 320 -15 0 -8 9 -15 20 -15
16 0 20 7 20 30 l0 30 -325 0 -325 0 0 30 c0 20 -5 30 -15 30 -11 0 -15 -12
-15 -45z"/>
<path d="M6280 7885 l0 -765 -30 0 c-20 0 -30 -5 -30 -15 0 -8 -7 -15 -15 -15
-13 0 -15 -46 -15 -355 l0 -355 370 0 c322 0 370 2 370 15 0 8 7 15 15 15 8 0
15 7 15 15 0 13 41 15 305 15 l305 0 0 45 0 45 -355 0 -355 0 0 -45 0 -45
-290 0 -290 0 0 290 0 290 30 0 30 0 0 815 0 815 -30 0 -30 0 0 -765z"/>
<path d="M54950 7835 l0 -815 30 0 30 0 0 -290 0 -290 -290 0 -290 0 0 45 0
45 -355 0 -355 0 0 -45 0 -45 305 0 305 0 0 -30 0 -30 370 0 370 0 0 370 0
370 -30 0 -30 0 0 765 0 765 -30 0 -30 0 0 -815z"/>
<path d="M54640 7070 c0 -224 2 -260 15 -260 13 0 15 36 15 260 0 224 -2 260
-15 260 -13 0 -15 -36 -15 -260z"/>
<path d="M14190 6840 l0 -400 -290 0 -290 0 0 30 c0 20 -5 30 -15 30 -8 0 -15
7 -15 15 0 13 -44 15 -340 15 l-340 0 0 -45 0 -45 305 0 305 0 0 -30 0 -30
370 0 370 0 0 385 c0 336 2 385 15 385 8 0 15 7 15 15 0 13 75 15 615 15 l615
0 0 30 0 30 -660 0 -660 0 0 -400z"/>
<path d="M16920 7210 l0 -30 305 0 305 0 0 30 0 30 -305 0 -305 0 0 -30z"/>
<path d="M18970 7210 l0 -30 610 0 610 0 0 -80 0 -80 370 0 370 0 0 80 0 80
550 0 550 0 0 30 0 30 -580 0 -580 0 0 -60 c0 -47 -3 -60 -15 -60 -8 0 -15 -7
-15 -15 0 -13 -37 -15 -275 -15 l-275 0 0 75 0 75 -660 0 -660 0 0 -30z"/>
<path d="M23470 7210 l0 -30 310 0 310 0 0 30 0 30 -310 0 -310 0 0 -30z"/>
<path d="M25500 7210 l0 -30 550 0 550 0 0 -80 0 -80 370 0 370 0 0 35 0 35
320 0 320 0 0 45 0 45 -355 0 -355 0 0 -30 c0 -20 -5 -30 -15 -30 -8 0 -15 -7
-15 -15 0 -13 -36 -15 -260 -15 -224 0 -260 2 -260 15 0 8 -7 15 -15 15 -12 0
-15 13 -15 60 l0 60 -595 0 -595 0 0 -30z"/>
<path d="M34600 7180 c0 -47 -3 -60 -15 -60 -8 0 -15 -7 -15 -15 0 -13 -36
-15 -260 -15 -224 0 -260 2 -260 15 0 8 -7 15 -15 15 -10 0 -15 10 -15 30 l0
30 -355 0 -355 0 0 -45 0 -45 305 0 305 0 0 -35 0 -35 370 0 370 0 0 65 c0 51
3 65 15 65 8 0 15 7 15 15 0 13 68 15 550 15 l550 0 0 30 0 30 -595 0 -595 0
0 -60z"/>
<path d="M37200 7210 l0 -30 310 0 310 0 0 30 0 30 -310 0 -310 0 0 -30z"/>
<path d="M39230 7225 c0 -8 7 -15 15 -15 8 0 15 -7 15 -15 0 -13 66 -15 535
-15 469 0 535 -2 535 -15 0 -8 7 -15 15 -15 12 0 15 -14 15 -65 l0 -65 365 0
365 0 0 80 0 80 615 0 615 0 0 30 0 30 -660 0 -660 0 0 -75 0 -75 -275 0
c-238 0 -275 2 -275 15 0 8 -7 15 -15 15 -12 0 -15 13 -15 60 l0 60 -595 0
c-522 0 -595 -2 -595 -15z"/>
<path d="M43760 7210 l0 -30 290 0 c251 0 290 2 290 15 0 8 7 15 15 15 8 0 15
7 15 15 0 13 -41 15 -305 15 l-305 0 0 -30z"/>
<path d="M45780 7210 l0 -30 615 0 c540 0 615 -2 615 -15 0 -8 7 -15 15 -15 8
0 15 -7 15 -15 0 -8 -7 -15 -15 -15 -13 0 -15 -21 -15 -125 0 -104 2 -125 15
-125 8 0 15 -7 15 -15 0 -8 -7 -15 -15 -15 -11 0 -15 -12 -15 -45 0 -33 4 -45
15 -45 8 0 15 -7 15 -15 0 -8 -7 -15 -15 -15 -12 0 -15 -13 -15 -60 0 -47 3
-60 15 -60 10 0 15 -11 15 -35 0 -24 -5 -35 -15 -35 -11 0 -15 -12 -15 -45 0
-33 4 -45 15 -45 8 0 15 -7 15 -15 0 -8 -7 -15 -15 -15 -8 0 -15 -7 -15 -15 0
-13 49 -15 385 -15 l385 0 0 30 0 30 305 0 305 0 0 45 0 45 -355 0 -355 0 0
-45 0 -45 -290 0 -290 0 0 400 0 400 -660 0 -660 0 0 -30z"/>
<path d="M29110 7135 l0 -45 260 0 260 0 0 45 0 45 -260 0 -260 0 0 -45z"/>
<path d="M31630 7165 c0 -8 7 -15 15 -15 10 0 15 -10 15 -30 l0 -30 260 0 260
0 0 45 0 45 -275 0 c-238 0 -275 -2 -275 -15z"/>
<path d="M8700 6485 l0 -45 260 0 260 0 0 45 0 45 -260 0 -260 0 0 -45z"/>
<path d="M11250 6500 c0 -20 -5 -30 -15 -30 -8 0 -15 -7 -15 -15 0 -13 37 -15
275 -15 l275 0 0 45 0 45 -260 0 -260 0 0 -30z"/>
<path d="M49520 6485 l0 -45 260 0 260 0 0 45 0 45 -260 0 -260 0 0 -45z"/>
<path d="M52070 6485 l0 -45 260 0 260 0 0 45 0 45 -260 0 -260 0 0 -45z"/>
</g>
</svg>
